<?xml version="1.0" encoding="utf-8" standalone="no"?>
<!DOCTYPE svg PUBLIC "-//W3C//DTD SVG 1.1//EN"
  "http://www.w3.org/Graphics/SVG/1.1/DTD/svg11.dtd">
<!-- Created with matplotlib (https://matplotlib.org/) -->
<svg height="345.6pt" version="1.1" viewBox="0 0 460.8 345.6" width="460.8pt" xmlns="http://www.w3.org/2000/svg" xmlns:xlink="http://www.w3.org/1999/xlink">
 <defs>
  <style type="text/css">
*{stroke-linecap:butt;stroke-linejoin:round;}
  </style>
 </defs>
 <g id="figure_1">
  <g id="patch_1">
   <path d="M 0 345.6 
L 460.8 345.6 
L 460.8 0 
L 0 0 
z
" style="fill:#ffffff;"/>
  </g>
  <g id="axes_1">
   <g id="patch_2">
    <path d="M 57.6 307.584 
L 414.72 307.584 
L 414.72 41.472 
L 57.6 41.472 
z
" style="fill:#ffffff;"/>
   </g>
   <g id="patch_3">
    <path clip-path="url(#p64e4805392)" d="M 78.470649 307.584 
L 80.237477 307.584 
L 80.237477 307.584 
L 78.470649 307.584 
z
" style="fill:#1f77b4;"/>
   </g>
   <g id="patch_4">
    <path clip-path="url(#p64e4805392)" d="M 80.679184 307.584 
L 82.446011 307.584 
L 82.446011 305.374515 
L 80.679184 305.374515 
z
" style="fill:#1f77b4;"/>
   </g>
   <g id="patch_5">
    <path clip-path="url(#p64e4805392)" d="M 82.887718 307.584 
L 84.654545 307.584 
L 84.654545 305.374515 
L 82.887718 305.374515 
z
" style="fill:#1f77b4;"/>
   </g>
   <g id="patch_6">
    <path clip-path="url(#p64e4805392)" d="M 85.096252 307.584 
L 86.86308 307.584 
L 86.86308 303.165029 
L 85.096252 303.165029 
z
" style="fill:#1f77b4;"/>
   </g>
   <g id="patch_7">
    <path clip-path="url(#p64e4805392)" d="M 87.304787 307.584 
L 89.071614 307.584 
L 89.071614 300.955544 
L 87.304787 300.955544 
z
" style="fill:#1f77b4;"/>
   </g>
   <g id="patch_8">
    <path clip-path="url(#p64e4805392)" d="M 89.513321 307.584 
L 91.280148 307.584 
L 91.280148 296.536573 
L 89.513321 296.536573 
z
" style="fill:#1f77b4;"/>
   </g>
   <g id="patch_9">
    <path clip-path="url(#p64e4805392)" d="M 91.721855 307.584 
L 93.488683 307.584 
L 93.488683 298.746058 
L 91.721855 298.746058 
z
" style="fill:#1f77b4;"/>
   </g>
   <g id="patch_10">
    <path clip-path="url(#p64e4805392)" d="M 93.93039 307.584 
L 95.697217 307.584 
L 95.697217 216.995098 
L 93.93039 216.995098 
z
" style="fill:#1f77b4;"/>
   </g>
   <g id="patch_11">
    <path clip-path="url(#p64e4805392)" d="M 96.138924 307.584 
L 97.905751 307.584 
L 97.905751 305.374515 
L 96.138924 305.374515 
z
" style="fill:#1f77b4;"/>
   </g>
   <g id="patch_12">
    <path clip-path="url(#p64e4805392)" d="M 98.347458 307.584 
L 100.114286 307.584 
L 100.114286 307.584 
L 98.347458 307.584 
z
" style="fill:#ff7f0e;"/>
   </g>
   <g id="patch_13">
    <path clip-path="url(#p64e4805392)" d="M 100.555993 307.584 
L 102.32282 307.584 
L 102.32282 298.746058 
L 100.555993 298.746058 
z
" style="fill:#ff7f0e;"/>
   </g>
   <g id="patch_14">
    <path clip-path="url(#p64e4805392)" d="M 102.764527 307.584 
L 104.531354 307.584 
L 104.531354 258.975321 
L 102.764527 258.975321 
z
" style="fill:#ff7f0e;"/>
   </g>
   <g id="patch_15">
    <path clip-path="url(#p64e4805392)" d="M 104.973061 307.584 
L 106.739889 307.584 
L 106.739889 243.508923 
L 104.973061 243.508923 
z
" style="fill:#ff7f0e;"/>
   </g>
   <g id="patch_16">
    <path clip-path="url(#p64e4805392)" d="M 107.181596 307.584 
L 108.948423 307.584 
L 108.948423 303.165029 
L 107.181596 303.165029 
z
" style="fill:#ff7f0e;"/>
   </g>
   <g id="patch_17">
    <path clip-path="url(#p64e4805392)" d="M 109.39013 307.584 
L 111.156957 307.584 
L 111.156957 307.584 
L 109.39013 307.584 
z
" style="fill:#2ca02c;"/>
   </g>
   <g id="patch_18">
    <path clip-path="url(#p64e4805392)" d="M 111.598664 307.584 
L 113.365492 307.584 
L 113.365492 307.584 
L 111.598664 307.584 
z
" style="fill:#2ca02c;"/>
   </g>
   <g id="patch_19">
    <path clip-path="url(#p64e4805392)" d="M 113.807199 307.584 
L 115.574026 307.584 
L 115.574026 307.584 
L 113.807199 307.584 
z
" style="fill:#2ca02c;"/>
   </g>
   <g id="patch_20">
    <path clip-path="url(#p64e4805392)" d="M 116.015733 307.584 
L 117.78256 307.584 
L 117.78256 307.584 
L 116.015733 307.584 
z
" style="fill:#2ca02c;"/>
   </g>
   <g id="patch_21">
    <path clip-path="url(#p64e4805392)" d="M 118.224267 307.584 
L 119.991095 307.584 
L 119.991095 307.584 
L 118.224267 307.584 
z
" style="fill:#2ca02c;"/>
   </g>
   <g id="patch_22">
    <path clip-path="url(#p64e4805392)" d="M 120.432801 307.584 
L 122.199629 307.584 
L 122.199629 307.584 
L 120.432801 307.584 
z
" style="fill:#2ca02c;"/>
   </g>
   <g id="patch_23">
    <path clip-path="url(#p64e4805392)" d="M 122.641336 307.584 
L 124.408163 307.584 
L 124.408163 307.584 
L 122.641336 307.584 
z
" style="fill:#2ca02c;"/>
   </g>
   <g id="patch_24">
    <path clip-path="url(#p64e4805392)" d="M 124.84987 307.584 
L 126.616698 307.584 
L 126.616698 307.584 
L 124.84987 307.584 
z
" style="fill:#2ca02c;"/>
   </g>
   <g id="patch_25">
    <path clip-path="url(#p64e4805392)" d="M 127.058404 307.584 
L 128.825232 307.584 
L 128.825232 307.584 
L 127.058404 307.584 
z
" style="fill:#2ca02c;"/>
   </g>
   <g id="patch_26">
    <path clip-path="url(#p64e4805392)" d="M 129.266939 307.584 
L 131.033766 307.584 
L 131.033766 307.584 
L 129.266939 307.584 
z
" style="fill:#2ca02c;"/>
   </g>
   <g id="patch_27">
    <path clip-path="url(#p64e4805392)" d="M 131.475473 307.584 
L 133.242301 307.584 
L 133.242301 307.584 
L 131.475473 307.584 
z
" style="fill:#2ca02c;"/>
   </g>
   <g id="patch_28">
    <path clip-path="url(#p64e4805392)" d="M 74.053581 307.584 
L 75.820408 307.584 
L 75.820408 307.584 
L 74.053581 307.584 
z
" style="fill:#2ca02c;"/>
   </g>
   <g id="patch_29">
    <path clip-path="url(#p64e4805392)" d="M 76.262115 307.584 
L 78.028942 307.584 
L 78.028942 307.584 
L 76.262115 307.584 
z
" style="fill:#2ca02c;"/>
   </g>
   <g id="patch_30">
    <path clip-path="url(#p64e4805392)" d="M 78.249796 307.584 
L 98.126605 307.584 
L 98.126605 179.433846 
L 78.249796 179.433846 
z
" style="fill:#1f77b4;opacity:0.2;"/>
   </g>
   <g id="patch_31">
    <path clip-path="url(#p64e4805392)" d="M 98.126605 307.584 
L 109.169276 307.584 
L 109.169276 181.643331 
L 98.126605 181.643331 
z
" style="fill:#ff7f0e;opacity:0.2;"/>
   </g>
   <g id="patch_32">
    <path clip-path="url(#p64e4805392)" d="M 109.169276 307.584 
L 133.463154 307.584 
L 133.463154 307.584 
L 109.169276 307.584 
z
" style="fill:#2ca02c;opacity:0.2;"/>
   </g>
   <g id="patch_33">
    <path clip-path="url(#p64e4805392)" d="M 73.832727 307.584 
L 78.249796 307.584 
L 78.249796 307.584 
L 73.832727 307.584 
z
" style="fill:#2ca02c;opacity:0.2;"/>
   </g>
   <g id="patch_34">
    <path clip-path="url(#p64e4805392)" d="M 144.726679 307.584 
L 146.493506 307.584 
L 146.493506 307.584 
L 144.726679 307.584 
z
" style="fill:#1f77b4;"/>
   </g>
   <g id="patch_35">
    <path clip-path="url(#p64e4805392)" d="M 146.935213 307.584 
L 148.702041 307.584 
L 148.702041 307.584 
L 146.935213 307.584 
z
" style="fill:#1f77b4;"/>
   </g>
   <g id="patch_36">
    <path clip-path="url(#p64e4805392)" d="M 149.143748 307.584 
L 150.910575 307.584 
L 150.910575 300.71668 
L 149.143748 300.71668 
z
" style="fill:#1f77b4;"/>
   </g>
   <g id="patch_37">
    <path clip-path="url(#p64e4805392)" d="M 151.352282 307.584 
L 153.119109 307.584 
L 153.119109 293.849361 
L 151.352282 293.849361 
z
" style="fill:#1f77b4;"/>
   </g>
   <g id="patch_38">
    <path clip-path="url(#p64e4805392)" d="M 153.560816 307.584 
L 155.327644 307.584 
L 155.327644 307.584 
L 153.560816 307.584 
z
" style="fill:#1f77b4;"/>
   </g>
   <g id="patch_39">
    <path clip-path="url(#p64e4805392)" d="M 155.769351 307.584 
L 157.536178 307.584 
L 157.536178 300.71668 
L 155.769351 300.71668 
z
" style="fill:#1f77b4;"/>
   </g>
   <g id="patch_40">
    <path clip-path="url(#p64e4805392)" d="M 157.977885 307.584 
L 159.744712 307.584 
L 159.744712 286.982041 
L 157.977885 286.982041 
z
" style="fill:#1f77b4;"/>
   </g>
   <g id="patch_41">
    <path clip-path="url(#p64e4805392)" d="M 160.186419 307.584 
L 161.953247 307.584 
L 161.953247 307.584 
L 160.186419 307.584 
z
" style="fill:#1f77b4;"/>
   </g>
   <g id="patch_42">
    <path clip-path="url(#p64e4805392)" d="M 162.394954 307.584 
L 164.161781 307.584 
L 164.161781 307.584 
L 162.394954 307.584 
z
" style="fill:#1f77b4;"/>
   </g>
   <g id="patch_43">
    <path clip-path="url(#p64e4805392)" d="M 164.603488 307.584 
L 166.370315 307.584 
L 166.370315 307.584 
L 164.603488 307.584 
z
" style="fill:#ff7f0e;"/>
   </g>
   <g id="patch_44">
    <path clip-path="url(#p64e4805392)" d="M 166.812022 307.584 
L 168.57885 307.584 
L 168.57885 280.114722 
L 166.812022 280.114722 
z
" style="fill:#ff7f0e;"/>
   </g>
   <g id="patch_45">
    <path clip-path="url(#p64e4805392)" d="M 169.020557 307.584 
L 170.787384 307.584 
L 170.787384 259.512763 
L 169.020557 259.512763 
z
" style="fill:#ff7f0e;"/>
   </g>
   <g id="patch_46">
    <path clip-path="url(#p64e4805392)" d="M 171.229091 307.584 
L 172.995918 307.584 
L 172.995918 183.972248 
L 171.229091 183.972248 
z
" style="fill:#ff7f0e;"/>
   </g>
   <g id="patch_47">
    <path clip-path="url(#p64e4805392)" d="M 173.437625 307.584 
L 175.204453 307.584 
L 175.204453 300.71668 
L 173.437625 300.71668 
z
" style="fill:#ff7f0e;"/>
   </g>
   <g id="patch_48">
    <path clip-path="url(#p64e4805392)" d="M 175.64616 307.584 
L 177.412987 307.584 
L 177.412987 307.584 
L 175.64616 307.584 
z
" style="fill:#2ca02c;"/>
   </g>
   <g id="patch_49">
    <path clip-path="url(#p64e4805392)" d="M 177.854694 307.584 
L 179.621521 307.584 
L 179.621521 307.584 
L 177.854694 307.584 
z
" style="fill:#2ca02c;"/>
   </g>
   <g id="patch_50">
    <path clip-path="url(#p64e4805392)" d="M 180.063228 307.584 
L 181.830056 307.584 
L 181.830056 307.584 
L 180.063228 307.584 
z
" style="fill:#2ca02c;"/>
   </g>
   <g id="patch_51">
    <path clip-path="url(#p64e4805392)" d="M 182.271763 307.584 
L 184.03859 307.584 
L 184.03859 307.584 
L 182.271763 307.584 
z
" style="fill:#2ca02c;"/>
   </g>
   <g id="patch_52">
    <path clip-path="url(#p64e4805392)" d="M 184.480297 307.584 
L 186.247124 307.584 
L 186.247124 307.584 
L 184.480297 307.584 
z
" style="fill:#2ca02c;"/>
   </g>
   <g id="patch_53">
    <path clip-path="url(#p64e4805392)" d="M 186.688831 307.584 
L 188.455659 307.584 
L 188.455659 307.584 
L 186.688831 307.584 
z
" style="fill:#2ca02c;"/>
   </g>
   <g id="patch_54">
    <path clip-path="url(#p64e4805392)" d="M 188.897365 307.584 
L 190.664193 307.584 
L 190.664193 307.584 
L 188.897365 307.584 
z
" style="fill:#2ca02c;"/>
   </g>
   <g id="patch_55">
    <path clip-path="url(#p64e4805392)" d="M 191.1059 307.584 
L 192.872727 307.584 
L 192.872727 307.584 
L 191.1059 307.584 
z
" style="fill:#2ca02c;"/>
   </g>
   <g id="patch_56">
    <path clip-path="url(#p64e4805392)" d="M 193.314434 307.584 
L 195.081262 307.584 
L 195.081262 307.584 
L 193.314434 307.584 
z
" style="fill:#2ca02c;"/>
   </g>
   <g id="patch_57">
    <path clip-path="url(#p64e4805392)" d="M 195.522968 307.584 
L 197.289796 307.584 
L 197.289796 307.584 
L 195.522968 307.584 
z
" style="fill:#2ca02c;"/>
   </g>
   <g id="patch_58">
    <path clip-path="url(#p64e4805392)" d="M 197.731503 307.584 
L 199.49833 307.584 
L 199.49833 307.584 
L 197.731503 307.584 
z
" style="fill:#2ca02c;"/>
   </g>
   <g id="patch_59">
    <path clip-path="url(#p64e4805392)" d="M 140.30961 307.584 
L 142.076438 307.584 
L 142.076438 307.584 
L 140.30961 307.584 
z
" style="fill:#2ca02c;"/>
   </g>
   <g id="patch_60">
    <path clip-path="url(#p64e4805392)" d="M 142.518145 307.584 
L 144.284972 307.584 
L 144.284972 307.584 
L 142.518145 307.584 
z
" style="fill:#2ca02c;"/>
   </g>
   <g id="patch_61">
    <path clip-path="url(#p64e4805392)" d="M 144.505826 307.584 
L 164.382635 307.584 
L 164.382635 259.512763 
L 144.505826 259.512763 
z
" style="fill:#1f77b4;opacity:0.2;"/>
   </g>
   <g id="patch_62">
    <path clip-path="url(#p64e4805392)" d="M 164.382635 307.584 
L 175.425306 307.584 
L 175.425306 101.564414 
L 164.382635 101.564414 
z
" style="fill:#ff7f0e;opacity:0.2;"/>
   </g>
   <g id="patch_63">
    <path clip-path="url(#p64e4805392)" d="M 175.425306 307.584 
L 199.719184 307.584 
L 199.719184 307.584 
L 175.425306 307.584 
z
" style="fill:#2ca02c;opacity:0.2;"/>
   </g>
   <g id="patch_64">
    <path clip-path="url(#p64e4805392)" d="M 140.088757 307.584 
L 144.505826 307.584 
L 144.505826 307.584 
L 140.088757 307.584 
z
" style="fill:#2ca02c;opacity:0.2;"/>
   </g>
   <g id="patch_65">
    <path clip-path="url(#p64e4805392)" d="M 210.982709 307.584 
L 212.749536 307.584 
L 212.749536 307.584 
L 210.982709 307.584 
z
" style="fill:#1f77b4;"/>
   </g>
   <g id="patch_66">
    <path clip-path="url(#p64e4805392)" d="M 213.191243 307.584 
L 214.958071 307.584 
L 214.958071 307.584 
L 213.191243 307.584 
z
" style="fill:#1f77b4;"/>
   </g>
   <g id="patch_67">
    <path clip-path="url(#p64e4805392)" d="M 215.399777 307.584 
L 217.166605 307.584 
L 217.166605 307.584 
L 215.399777 307.584 
z
" style="fill:#1f77b4;"/>
   </g>
   <g id="patch_68">
    <path clip-path="url(#p64e4805392)" d="M 217.608312 307.584 
L 219.375139 307.584 
L 219.375139 307.584 
L 217.608312 307.584 
z
" style="fill:#1f77b4;"/>
   </g>
   <g id="patch_69">
    <path clip-path="url(#p64e4805392)" d="M 219.816846 307.584 
L 221.583673 307.584 
L 221.583673 307.584 
L 219.816846 307.584 
z
" style="fill:#1f77b4;"/>
   </g>
   <g id="patch_70">
    <path clip-path="url(#p64e4805392)" d="M 222.02538 307.584 
L 223.792208 307.584 
L 223.792208 307.584 
L 222.02538 307.584 
z
" style="fill:#1f77b4;"/>
   </g>
   <g id="patch_71">
    <path clip-path="url(#p64e4805392)" d="M 224.233915 307.584 
L 226.000742 307.584 
L 226.000742 294.879459 
L 224.233915 294.879459 
z
" style="fill:#1f77b4;"/>
   </g>
   <g id="patch_72">
    <path clip-path="url(#p64e4805392)" d="M 226.442449 307.584 
L 228.209276 307.584 
L 228.209276 307.584 
L 226.442449 307.584 
z
" style="fill:#1f77b4;"/>
   </g>
   <g id="patch_73">
    <path clip-path="url(#p64e4805392)" d="M 228.650983 307.584 
L 230.417811 307.584 
L 230.417811 307.584 
L 228.650983 307.584 
z
" style="fill:#1f77b4;"/>
   </g>
   <g id="patch_74">
    <path clip-path="url(#p64e4805392)" d="M 230.859518 307.584 
L 232.626345 307.584 
L 232.626345 307.584 
L 230.859518 307.584 
z
" style="fill:#ff7f0e;"/>
   </g>
   <g id="patch_75">
    <path clip-path="url(#p64e4805392)" d="M 233.068052 307.584 
L 234.834879 307.584 
L 234.834879 307.584 
L 233.068052 307.584 
z
" style="fill:#ff7f0e;"/>
   </g>
   <g id="patch_76">
    <path clip-path="url(#p64e4805392)" d="M 235.276586 307.584 
L 237.043414 307.584 
L 237.043414 205.947671 
L 235.276586 205.947671 
z
" style="fill:#ff7f0e;"/>
   </g>
   <g id="patch_77">
    <path clip-path="url(#p64e4805392)" d="M 237.485121 307.584 
L 239.251948 307.584 
L 239.251948 167.834047 
L 237.485121 167.834047 
z
" style="fill:#ff7f0e;"/>
   </g>
   <g id="patch_78">
    <path clip-path="url(#p64e4805392)" d="M 239.693655 307.584 
L 241.460482 307.584 
L 241.460482 307.584 
L 239.693655 307.584 
z
" style="fill:#ff7f0e;"/>
   </g>
   <g id="patch_79">
    <path clip-path="url(#p64e4805392)" d="M 241.902189 307.584 
L 243.669017 307.584 
L 243.669017 307.584 
L 241.902189 307.584 
z
" style="fill:#2ca02c;"/>
   </g>
   <g id="patch_80">
    <path clip-path="url(#p64e4805392)" d="M 244.110724 307.584 
L 245.877551 307.584 
L 245.877551 307.584 
L 244.110724 307.584 
z
" style="fill:#2ca02c;"/>
   </g>
   <g id="patch_81">
    <path clip-path="url(#p64e4805392)" d="M 246.319258 307.584 
L 248.086085 307.584 
L 248.086085 307.584 
L 246.319258 307.584 
z
" style="fill:#2ca02c;"/>
   </g>
   <g id="patch_82">
    <path clip-path="url(#p64e4805392)" d="M 248.527792 307.584 
L 250.29462 307.584 
L 250.29462 307.584 
L 248.527792 307.584 
z
" style="fill:#2ca02c;"/>
   </g>
   <g id="patch_83">
    <path clip-path="url(#p64e4805392)" d="M 250.736327 307.584 
L 252.503154 307.584 
L 252.503154 307.584 
L 250.736327 307.584 
z
" style="fill:#2ca02c;"/>
   </g>
   <g id="patch_84">
    <path clip-path="url(#p64e4805392)" d="M 252.944861 307.584 
L 254.711688 307.584 
L 254.711688 307.584 
L 252.944861 307.584 
z
" style="fill:#2ca02c;"/>
   </g>
   <g id="patch_85">
    <path clip-path="url(#p64e4805392)" d="M 255.153395 307.584 
L 256.920223 307.584 
L 256.920223 307.584 
L 255.153395 307.584 
z
" style="fill:#2ca02c;"/>
   </g>
   <g id="patch_86">
    <path clip-path="url(#p64e4805392)" d="M 257.361929 307.584 
L 259.128757 307.584 
L 259.128757 307.584 
L 257.361929 307.584 
z
" style="fill:#2ca02c;"/>
   </g>
   <g id="patch_87">
    <path clip-path="url(#p64e4805392)" d="M 259.570464 307.584 
L 261.337291 307.584 
L 261.337291 307.584 
L 259.570464 307.584 
z
" style="fill:#2ca02c;"/>
   </g>
   <g id="patch_88">
    <path clip-path="url(#p64e4805392)" d="M 261.778998 307.584 
L 263.545826 307.584 
L 263.545826 307.584 
L 261.778998 307.584 
z
" style="fill:#2ca02c;"/>
   </g>
   <g id="patch_89">
    <path clip-path="url(#p64e4805392)" d="M 263.987532 307.584 
L 265.75436 307.584 
L 265.75436 307.584 
L 263.987532 307.584 
z
" style="fill:#2ca02c;"/>
   </g>
   <g id="patch_90">
    <path clip-path="url(#p64e4805392)" d="M 206.56564 307.584 
L 208.332468 307.584 
L 208.332468 307.584 
L 206.56564 307.584 
z
" style="fill:#2ca02c;"/>
   </g>
   <g id="patch_91">
    <path clip-path="url(#p64e4805392)" d="M 208.774174 307.584 
L 210.541002 307.584 
L 210.541002 307.584 
L 208.774174 307.584 
z
" style="fill:#2ca02c;"/>
   </g>
   <g id="patch_92">
    <path clip-path="url(#p64e4805392)" d="M 210.761855 307.584 
L 230.638664 307.584 
L 230.638664 294.879459 
L 210.761855 294.879459 
z
" style="fill:#1f77b4;opacity:0.2;"/>
   </g>
   <g id="patch_93">
    <path clip-path="url(#p64e4805392)" d="M 230.638664 307.584 
L 241.681336 307.584 
L 241.681336 66.197718 
L 230.638664 66.197718 
z
" style="fill:#ff7f0e;opacity:0.2;"/>
   </g>
   <g id="patch_94">
    <path clip-path="url(#p64e4805392)" d="M 241.681336 307.584 
L 265.975213 307.584 
L 265.975213 307.584 
L 241.681336 307.584 
z
" style="fill:#2ca02c;opacity:0.2;"/>
   </g>
   <g id="patch_95">
    <path clip-path="url(#p64e4805392)" d="M 206.344787 307.584 
L 210.761855 307.584 
L 210.761855 307.584 
L 206.344787 307.584 
z
" style="fill:#2ca02c;opacity:0.2;"/>
   </g>
   <g id="patch_96">
    <path clip-path="url(#p64e4805392)" d="M 277.238738 307.584 
L 279.005566 307.584 
L 279.005566 307.584 
L 277.238738 307.584 
z
" style="fill:#1f77b4;"/>
   </g>
   <g id="patch_97">
    <path clip-path="url(#p64e4805392)" d="M 279.447273 307.584 
L 281.2141 307.584 
L 281.2141 307.584 
L 279.447273 307.584 
z
" style="fill:#1f77b4;"/>
   </g>
   <g id="patch_98">
    <path clip-path="url(#p64e4805392)" d="M 281.655807 307.584 
L 283.422635 307.584 
L 283.422635 298.509328 
L 281.655807 298.509328 
z
" style="fill:#1f77b4;"/>
   </g>
   <g id="patch_99">
    <path clip-path="url(#p64e4805392)" d="M 283.864341 307.584 
L 285.631169 307.584 
L 285.631169 271.285311 
L 283.864341 271.285311 
z
" style="fill:#1f77b4;"/>
   </g>
   <g id="patch_100">
    <path clip-path="url(#p64e4805392)" d="M 286.072876 307.584 
L 287.839703 307.584 
L 287.839703 303.046664 
L 286.072876 303.046664 
z
" style="fill:#1f77b4;"/>
   </g>
   <g id="patch_101">
    <path clip-path="url(#p64e4805392)" d="M 288.28141 307.584 
L 290.048237 307.584 
L 290.048237 266.747975 
L 288.28141 266.747975 
z
" style="fill:#1f77b4;"/>
   </g>
   <g id="patch_102">
    <path clip-path="url(#p64e4805392)" d="M 290.489944 307.584 
L 292.256772 307.584 
L 292.256772 289.434656 
L 290.489944 289.434656 
z
" style="fill:#1f77b4;"/>
   </g>
   <g id="patch_103">
    <path clip-path="url(#p64e4805392)" d="M 292.698479 307.584 
L 294.465306 307.584 
L 294.465306 289.434656 
L 292.698479 289.434656 
z
" style="fill:#1f77b4;"/>
   </g>
   <g id="patch_104">
    <path clip-path="url(#p64e4805392)" d="M 294.907013 307.584 
L 296.67384 307.584 
L 296.67384 307.584 
L 294.907013 307.584 
z
" style="fill:#1f77b4;"/>
   </g>
   <g id="patch_105">
    <path clip-path="url(#p64e4805392)" d="M 297.115547 307.584 
L 298.882375 307.584 
L 298.882375 307.584 
L 297.115547 307.584 
z
" style="fill:#ff7f0e;"/>
   </g>
   <g id="patch_106">
    <path clip-path="url(#p64e4805392)" d="M 299.324082 307.584 
L 301.090909 307.584 
L 301.090909 303.046664 
L 299.324082 303.046664 
z
" style="fill:#ff7f0e;"/>
   </g>
   <g id="patch_107">
    <path clip-path="url(#p64e4805392)" d="M 301.532616 307.584 
L 303.299443 307.584 
L 303.299443 280.359983 
L 301.532616 280.359983 
z
" style="fill:#ff7f0e;"/>
   </g>
   <g id="patch_108">
    <path clip-path="url(#p64e4805392)" d="M 303.74115 307.584 
L 305.507978 307.584 
L 305.507978 253.135967 
L 303.74115 253.135967 
z
" style="fill:#ff7f0e;"/>
   </g>
   <g id="patch_109">
    <path clip-path="url(#p64e4805392)" d="M 305.949685 307.584 
L 307.716512 307.584 
L 307.716512 298.509328 
L 305.949685 298.509328 
z
" style="fill:#ff7f0e;"/>
   </g>
   <g id="patch_110">
    <path clip-path="url(#p64e4805392)" d="M 308.158219 307.584 
L 309.925046 307.584 
L 309.925046 307.584 
L 308.158219 307.584 
z
" style="fill:#2ca02c;"/>
   </g>
   <g id="patch_111">
    <path clip-path="url(#p64e4805392)" d="M 310.366753 307.584 
L 312.133581 307.584 
L 312.133581 284.897319 
L 310.366753 284.897319 
z
" style="fill:#2ca02c;"/>
   </g>
   <g id="patch_112">
    <path clip-path="url(#p64e4805392)" d="M 312.575288 307.584 
L 314.342115 307.584 
L 314.342115 307.584 
L 312.575288 307.584 
z
" style="fill:#2ca02c;"/>
   </g>
   <g id="patch_113">
    <path clip-path="url(#p64e4805392)" d="M 314.783822 307.584 
L 316.550649 307.584 
L 316.550649 307.584 
L 314.783822 307.584 
z
" style="fill:#2ca02c;"/>
   </g>
   <g id="patch_114">
    <path clip-path="url(#p64e4805392)" d="M 316.992356 307.584 
L 318.759184 307.584 
L 318.759184 298.509328 
L 316.992356 298.509328 
z
" style="fill:#2ca02c;"/>
   </g>
   <g id="patch_115">
    <path clip-path="url(#p64e4805392)" d="M 319.200891 307.584 
L 320.967718 307.584 
L 320.967718 307.584 
L 319.200891 307.584 
z
" style="fill:#2ca02c;"/>
   </g>
   <g id="patch_116">
    <path clip-path="url(#p64e4805392)" d="M 321.409425 307.584 
L 323.176252 307.584 
L 323.176252 307.584 
L 321.409425 307.584 
z
" style="fill:#2ca02c;"/>
   </g>
   <g id="patch_117">
    <path clip-path="url(#p64e4805392)" d="M 323.617959 307.584 
L 325.384787 307.584 
L 325.384787 307.584 
L 323.617959 307.584 
z
" style="fill:#2ca02c;"/>
   </g>
   <g id="patch_118">
    <path clip-path="url(#p64e4805392)" d="M 325.826494 307.584 
L 327.593321 307.584 
L 327.593321 307.584 
L 325.826494 307.584 
z
" style="fill:#2ca02c;"/>
   </g>
   <g id="patch_119">
    <path clip-path="url(#p64e4805392)" d="M 328.035028 307.584 
L 329.801855 307.584 
L 329.801855 307.584 
L 328.035028 307.584 
z
" style="fill:#2ca02c;"/>
   </g>
   <g id="patch_120">
    <path clip-path="url(#p64e4805392)" d="M 330.243562 307.584 
L 332.01039 307.584 
L 332.01039 307.584 
L 330.243562 307.584 
z
" style="fill:#2ca02c;"/>
   </g>
   <g id="patch_121">
    <path clip-path="url(#p64e4805392)" d="M 272.82167 307.584 
L 274.588497 307.584 
L 274.588497 307.584 
L 272.82167 307.584 
z
" style="fill:#2ca02c;"/>
   </g>
   <g id="patch_122">
    <path clip-path="url(#p64e4805392)" d="M 275.030204 307.584 
L 276.797032 307.584 
L 276.797032 307.584 
L 275.030204 307.584 
z
" style="fill:#2ca02c;"/>
   </g>
   <g id="patch_123">
    <path clip-path="url(#p64e4805392)" d="M 277.017885 307.584 
L 296.894694 307.584 
L 296.894694 180.538589 
L 277.017885 180.538589 
z
" style="fill:#1f77b4;opacity:0.2;"/>
   </g>
   <g id="patch_124">
    <path clip-path="url(#p64e4805392)" d="M 296.894694 307.584 
L 307.937365 307.584 
L 307.937365 212.299941 
L 296.894694 212.299941 
z
" style="fill:#ff7f0e;opacity:0.2;"/>
   </g>
   <g id="patch_125">
    <path clip-path="url(#p64e4805392)" d="M 307.937365 307.584 
L 332.231243 307.584 
L 332.231243 275.822647 
L 307.937365 275.822647 
z
" style="fill:#2ca02c;opacity:0.2;"/>
   </g>
   <g id="patch_126">
    <path clip-path="url(#p64e4805392)" d="M 272.600816 307.584 
L 277.017885 307.584 
L 277.017885 275.822647 
L 272.600816 275.822647 
z
" style="fill:#2ca02c;opacity:0.2;"/>
   </g>
   <g id="patch_127">
    <path clip-path="url(#p64e4805392)" d="M 343.494768 307.584 
L 345.261596 307.584 
L 345.261596 307.584 
L 343.494768 307.584 
z
" style="fill:#1f77b4;"/>
   </g>
   <g id="patch_128">
    <path clip-path="url(#p64e4805392)" d="M 345.703302 307.584 
L 347.47013 307.584 
L 347.47013 307.584 
L 345.703302 307.584 
z
" style="fill:#1f77b4;"/>
   </g>
   <g id="patch_129">
    <path clip-path="url(#p64e4805392)" d="M 347.911837 307.584 
L 349.678664 307.584 
L 349.678664 307.584 
L 347.911837 307.584 
z
" style="fill:#1f77b4;"/>
   </g>
   <g id="patch_130">
    <path clip-path="url(#p64e4805392)" d="M 350.120371 307.584 
L 351.887199 307.584 
L 351.887199 278.265828 
L 350.120371 278.265828 
z
" style="fill:#1f77b4;"/>
   </g>
   <g id="patch_131">
    <path clip-path="url(#p64e4805392)" d="M 352.328905 307.584 
L 354.095733 307.584 
L 354.095733 307.584 
L 352.328905 307.584 
z
" style="fill:#1f77b4;"/>
   </g>
   <g id="patch_132">
    <path clip-path="url(#p64e4805392)" d="M 354.53744 307.584 
L 356.304267 307.584 
L 356.304267 302.697638 
L 354.53744 302.697638 
z
" style="fill:#1f77b4;"/>
   </g>
   <g id="patch_133">
    <path clip-path="url(#p64e4805392)" d="M 356.745974 307.584 
L 358.512801 307.584 
L 358.512801 297.811276 
L 356.745974 297.811276 
z
" style="fill:#1f77b4;"/>
   </g>
   <g id="patch_134">
    <path clip-path="url(#p64e4805392)" d="M 358.954508 307.584 
L 360.721336 307.584 
L 360.721336 278.265828 
L 358.954508 278.265828 
z
" style="fill:#1f77b4;"/>
   </g>
   <g id="patch_135">
    <path clip-path="url(#p64e4805392)" d="M 361.163043 307.584 
L 362.92987 307.584 
L 362.92987 307.584 
L 361.163043 307.584 
z
" style="fill:#1f77b4;"/>
   </g>
   <g id="patch_136">
    <path clip-path="url(#p64e4805392)" d="M 363.371577 307.584 
L 365.138404 307.584 
L 365.138404 307.584 
L 363.371577 307.584 
z
" style="fill:#ff7f0e;"/>
   </g>
   <g id="patch_137">
    <path clip-path="url(#p64e4805392)" d="M 365.580111 307.584 
L 367.346939 307.584 
L 367.346939 297.811276 
L 365.580111 297.811276 
z
" style="fill:#ff7f0e;"/>
   </g>
   <g id="patch_138">
    <path clip-path="url(#p64e4805392)" d="M 367.788646 307.584 
L 369.555473 307.584 
L 369.555473 268.493104 
L 367.788646 268.493104 
z
" style="fill:#ff7f0e;"/>
   </g>
   <g id="patch_139">
    <path clip-path="url(#p64e4805392)" d="M 369.99718 307.584 
L 371.764007 307.584 
L 371.764007 200.084036 
L 369.99718 200.084036 
z
" style="fill:#ff7f0e;"/>
   </g>
   <g id="patch_140">
    <path clip-path="url(#p64e4805392)" d="M 372.205714 307.584 
L 373.972542 307.584 
L 373.972542 297.811276 
L 372.205714 297.811276 
z
" style="fill:#ff7f0e;"/>
   </g>
   <g id="patch_141">
    <path clip-path="url(#p64e4805392)" d="M 374.414249 307.584 
L 376.181076 307.584 
L 376.181076 307.584 
L 374.414249 307.584 
z
" style="fill:#2ca02c;"/>
   </g>
   <g id="patch_142">
    <path clip-path="url(#p64e4805392)" d="M 376.622783 307.584 
L 378.38961 307.584 
L 378.38961 302.697638 
L 376.622783 302.697638 
z
" style="fill:#2ca02c;"/>
   </g>
   <g id="patch_143">
    <path clip-path="url(#p64e4805392)" d="M 378.831317 307.584 
L 380.598145 307.584 
L 380.598145 307.584 
L 378.831317 307.584 
z
" style="fill:#2ca02c;"/>
   </g>
   <g id="patch_144">
    <path clip-path="url(#p64e4805392)" d="M 381.039852 307.584 
L 382.806679 307.584 
L 382.806679 307.584 
L 381.039852 307.584 
z
" style="fill:#2ca02c;"/>
   </g>
   <g id="patch_145">
    <path clip-path="url(#p64e4805392)" d="M 383.248386 307.584 
L 385.015213 307.584 
L 385.015213 302.697638 
L 383.248386 302.697638 
z
" style="fill:#2ca02c;"/>
   </g>
   <g id="patch_146">
    <path clip-path="url(#p64e4805392)" d="M 385.45692 307.584 
L 387.223748 307.584 
L 387.223748 307.584 
L 385.45692 307.584 
z
" style="fill:#2ca02c;"/>
   </g>
   <g id="patch_147">
    <path clip-path="url(#p64e4805392)" d="M 387.665455 307.584 
L 389.432282 307.584 
L 389.432282 307.584 
L 387.665455 307.584 
z
" style="fill:#2ca02c;"/>
   </g>
   <g id="patch_148">
    <path clip-path="url(#p64e4805392)" d="M 389.873989 307.584 
L 391.640816 307.584 
L 391.640816 302.697638 
L 389.873989 302.697638 
z
" style="fill:#2ca02c;"/>
   </g>
   <g id="patch_149">
    <path clip-path="url(#p64e4805392)" d="M 392.082523 307.584 
L 393.849351 307.584 
L 393.849351 307.584 
L 392.082523 307.584 
z
" style="fill:#2ca02c;"/>
   </g>
   <g id="patch_150">
    <path clip-path="url(#p64e4805392)" d="M 394.291058 307.584 
L 396.057885 307.584 
L 396.057885 307.584 
L 394.291058 307.584 
z
" style="fill:#2ca02c;"/>
   </g>
   <g id="patch_151">
    <path clip-path="url(#p64e4805392)" d="M 396.499592 307.584 
L 398.266419 307.584 
L 398.266419 307.584 
L 396.499592 307.584 
z
" style="fill:#2ca02c;"/>
   </g>
   <g id="patch_152">
    <path clip-path="url(#p64e4805392)" d="M 339.077699 307.584 
L 340.844527 307.584 
L 340.844527 307.584 
L 339.077699 307.584 
z
" style="fill:#2ca02c;"/>
   </g>
   <g id="patch_153">
    <path clip-path="url(#p64e4805392)" d="M 341.286234 307.584 
L 343.053061 307.584 
L 343.053061 307.584 
L 341.286234 307.584 
z
" style="fill:#2ca02c;"/>
   </g>
   <g id="patch_154">
    <path clip-path="url(#p64e4805392)" d="M 343.273915 307.584 
L 363.150724 307.584 
L 363.150724 234.28857 
L 343.273915 234.28857 
z
" style="fill:#1f77b4;opacity:0.2;"/>
   </g>
   <g id="patch_155">
    <path clip-path="url(#p64e4805392)" d="M 363.150724 307.584 
L 374.193395 307.584 
L 374.193395 141.447693 
L 363.150724 141.447693 
z
" style="fill:#ff7f0e;opacity:0.2;"/>
   </g>
   <g id="patch_156">
    <path clip-path="url(#p64e4805392)" d="M 374.193395 307.584 
L 398.487273 307.584 
L 398.487273 292.924914 
L 374.193395 292.924914 
z
" style="fill:#2ca02c;opacity:0.2;"/>
   </g>
   <g id="patch_157">
    <path clip-path="url(#p64e4805392)" d="M 338.856846 307.584 
L 343.273915 307.584 
L 343.273915 292.924914 
L 338.856846 292.924914 
z
" style="fill:#2ca02c;opacity:0.2;"/>
   </g>
   <g id="matplotlib.axis_1">
    <g id="xtick_1">
     <g id="line2d_1">
      <defs>
       <path d="M 0 0 
L 0 3.5 
" id="mf3b26fa822" style="stroke:#000000;stroke-width:0.8;"/>
      </defs>
      <g>
       <use style="stroke:#000000;stroke-width:0.8;" x="101.439406" xlink:href="#mf3b26fa822" y="307.584"/>
      </g>
     </g>
     <g id="text_1">
      <!-- VUnit -->
      <defs>
       <path d="M 28.609375 0 
L 0.78125 72.90625 
L 11.078125 72.90625 
L 34.1875 11.53125 
L 57.328125 72.90625 
L 67.578125 72.90625 
L 39.796875 0 
z
" id="DejaVuSans-86"/>
       <path d="M 8.6875 72.90625 
L 18.609375 72.90625 
L 18.609375 28.609375 
Q 18.609375 16.890625 22.84375 11.734375 
Q 27.09375 6.59375 36.625 6.59375 
Q 46.09375 6.59375 50.34375 11.734375 
Q 54.59375 16.890625 54.59375 28.609375 
L 54.59375 72.90625 
L 64.5 72.90625 
L 64.5 27.390625 
Q 64.5 13.140625 57.4375 5.859375 
Q 50.390625 -1.421875 36.625 -1.421875 
Q 22.796875 -1.421875 15.734375 5.859375 
Q 8.6875 13.140625 8.6875 27.390625 
z
" id="DejaVuSans-85"/>
       <path d="M 54.890625 33.015625 
L 54.890625 0 
L 45.90625 0 
L 45.90625 32.71875 
Q 45.90625 40.484375 42.875 44.328125 
Q 39.84375 48.1875 33.796875 48.1875 
Q 26.515625 48.1875 22.3125 43.546875 
Q 18.109375 38.921875 18.109375 30.90625 
L 18.109375 0 
L 9.078125 0 
L 9.078125 54.6875 
L 18.109375 54.6875 
L 18.109375 46.1875 
Q 21.34375 51.125 25.703125 53.5625 
Q 30.078125 56 35.796875 56 
Q 45.21875 56 50.046875 50.171875 
Q 54.890625 44.34375 54.890625 33.015625 
z
" id="DejaVuSans-110"/>
       <path d="M 9.421875 54.6875 
L 18.40625 54.6875 
L 18.40625 0 
L 9.421875 0 
z
M 9.421875 75.984375 
L 18.40625 75.984375 
L 18.40625 64.59375 
L 9.421875 64.59375 
z
" id="DejaVuSans-105"/>
       <path d="M 18.3125 70.21875 
L 18.3125 54.6875 
L 36.8125 54.6875 
L 36.8125 47.703125 
L 18.3125 47.703125 
L 18.3125 18.015625 
Q 18.3125 11.328125 20.140625 9.421875 
Q 21.96875 7.515625 27.59375 7.515625 
L 36.8125 7.515625 
L 36.8125 0 
L 27.59375 0 
Q 17.1875 0 13.234375 3.875 
Q 9.28125 7.765625 9.28125 18.015625 
L 9.28125 47.703125 
L 2.6875 47.703125 
L 2.6875 54.6875 
L 9.28125 54.6875 
L 9.28125 70.21875 
z
" id="DejaVuSans-116"/>
      </defs>
      <g transform="translate(87.84175 322.182437)scale(0.1 -0.1)">
       <use xlink:href="#DejaVuSans-86"/>
       <use x="68.408203" xlink:href="#DejaVuSans-85"/>
       <use x="141.601562" xlink:href="#DejaVuSans-110"/>
       <use x="204.980469" xlink:href="#DejaVuSans-105"/>
       <use x="232.763672" xlink:href="#DejaVuSans-116"/>
      </g>
     </g>
    </g>
    <g id="xtick_2">
     <g id="line2d_2">
      <g>
       <use style="stroke:#000000;stroke-width:0.8;" x="167.695436" xlink:href="#mf3b26fa822" y="307.584"/>
      </g>
     </g>
     <g id="text_2">
      <!-- OSVVM -->
      <defs>
       <path d="M 39.40625 66.21875 
Q 28.65625 66.21875 22.328125 58.203125 
Q 16.015625 50.203125 16.015625 36.375 
Q 16.015625 22.609375 22.328125 14.59375 
Q 28.65625 6.59375 39.40625 6.59375 
Q 50.140625 6.59375 56.421875 14.59375 
Q 62.703125 22.609375 62.703125 36.375 
Q 62.703125 50.203125 56.421875 58.203125 
Q 50.140625 66.21875 39.40625 66.21875 
z
M 39.40625 74.21875 
Q 54.734375 74.21875 63.90625 63.9375 
Q 73.09375 53.65625 73.09375 36.375 
Q 73.09375 19.140625 63.90625 8.859375 
Q 54.734375 -1.421875 39.40625 -1.421875 
Q 24.03125 -1.421875 14.8125 8.828125 
Q 5.609375 19.09375 5.609375 36.375 
Q 5.609375 53.65625 14.8125 63.9375 
Q 24.03125 74.21875 39.40625 74.21875 
z
" id="DejaVuSans-79"/>
       <path d="M 53.515625 70.515625 
L 53.515625 60.890625 
Q 47.90625 63.578125 42.921875 64.890625 
Q 37.9375 66.21875 33.296875 66.21875 
Q 25.25 66.21875 20.875 63.09375 
Q 16.5 59.96875 16.5 54.203125 
Q 16.5 49.359375 19.40625 46.890625 
Q 22.3125 44.4375 30.421875 42.921875 
L 36.375 41.703125 
Q 47.40625 39.59375 52.65625 34.296875 
Q 57.90625 29 57.90625 20.125 
Q 57.90625 9.515625 50.796875 4.046875 
Q 43.703125 -1.421875 29.984375 -1.421875 
Q 24.8125 -1.421875 18.96875 -0.25 
Q 13.140625 0.921875 6.890625 3.21875 
L 6.890625 13.375 
Q 12.890625 10.015625 18.65625 8.296875 
Q 24.421875 6.59375 29.984375 6.59375 
Q 38.421875 6.59375 43.015625 9.90625 
Q 47.609375 13.234375 47.609375 19.390625 
Q 47.609375 24.75 44.3125 27.78125 
Q 41.015625 30.8125 33.5 32.328125 
L 27.484375 33.5 
Q 16.453125 35.6875 11.515625 40.375 
Q 6.59375 45.0625 6.59375 53.421875 
Q 6.59375 63.09375 13.40625 68.65625 
Q 20.21875 74.21875 32.171875 74.21875 
Q 37.3125 74.21875 42.625 73.28125 
Q 47.953125 72.359375 53.515625 70.515625 
z
" id="DejaVuSans-83"/>
       <path d="M 9.8125 72.90625 
L 24.515625 72.90625 
L 43.109375 23.296875 
L 61.8125 72.90625 
L 76.515625 72.90625 
L 76.515625 0 
L 66.890625 0 
L 66.890625 64.015625 
L 48.09375 14.015625 
L 38.1875 14.015625 
L 19.390625 64.015625 
L 19.390625 0 
L 9.8125 0 
z
" id="DejaVuSans-77"/>
      </defs>
      <g transform="translate(149.430592 322.182437)scale(0.1 -0.1)">
       <use xlink:href="#DejaVuSans-79"/>
       <use x="78.710938" xlink:href="#DejaVuSans-83"/>
       <use x="142.1875" xlink:href="#DejaVuSans-86"/>
       <use x="210.595703" xlink:href="#DejaVuSans-86"/>
       <use x="279.003906" xlink:href="#DejaVuSans-77"/>
      </g>
     </g>
    </g>
    <g id="xtick_3">
     <g id="line2d_3">
      <g>
       <use style="stroke:#000000;stroke-width:0.8;" x="233.951466" xlink:href="#mf3b26fa822" y="307.584"/>
      </g>
     </g>
     <g id="text_3">
      <!-- UVVM -->
      <g transform="translate(219.137403 322.182437)scale(0.1 -0.1)">
       <use xlink:href="#DejaVuSans-85"/>
       <use x="73.193359" xlink:href="#DejaVuSans-86"/>
       <use x="141.601562" xlink:href="#DejaVuSans-86"/>
       <use x="210.009766" xlink:href="#DejaVuSans-77"/>
      </g>
     </g>
    </g>
    <g id="xtick_4">
     <g id="line2d_4">
      <g>
       <use style="stroke:#000000;stroke-width:0.8;" x="300.207495" xlink:href="#mf3b26fa822" y="307.584"/>
      </g>
     </g>
     <g id="text_4">
      <!-- UVM -->
      <g transform="translate(288.813745 322.182437)scale(0.1 -0.1)">
       <use xlink:href="#DejaVuSans-85"/>
       <use x="73.193359" xlink:href="#DejaVuSans-86"/>
       <use x="141.601562" xlink:href="#DejaVuSans-77"/>
      </g>
     </g>
    </g>
    <g id="xtick_5">
     <g id="line2d_5">
      <g>
       <use style="stroke:#000000;stroke-width:0.8;" x="366.463525" xlink:href="#mf3b26fa822" y="307.584"/>
      </g>
     </g>
     <g id="text_5">
      <!-- cocotb -->
      <defs>
       <path d="M 48.78125 52.59375 
L 48.78125 44.1875 
Q 44.96875 46.296875 41.140625 47.34375 
Q 37.3125 48.390625 33.40625 48.390625 
Q 24.65625 48.390625 19.8125 42.84375 
Q 14.984375 37.3125 14.984375 27.296875 
Q 14.984375 17.28125 19.8125 11.734375 
Q 24.65625 6.203125 33.40625 6.203125 
Q 37.3125 6.203125 41.140625 7.25 
Q 44.96875 8.296875 48.78125 10.40625 
L 48.78125 2.09375 
Q 45.015625 0.34375 40.984375 -0.53125 
Q 36.96875 -1.421875 32.421875 -1.421875 
Q 20.0625 -1.421875 12.78125 6.34375 
Q 5.515625 14.109375 5.515625 27.296875 
Q 5.515625 40.671875 12.859375 48.328125 
Q 20.21875 56 33.015625 56 
Q 37.15625 56 41.109375 55.140625 
Q 45.0625 54.296875 48.78125 52.59375 
z
" id="DejaVuSans-99"/>
       <path d="M 30.609375 48.390625 
Q 23.390625 48.390625 19.1875 42.75 
Q 14.984375 37.109375 14.984375 27.296875 
Q 14.984375 17.484375 19.15625 11.84375 
Q 23.34375 6.203125 30.609375 6.203125 
Q 37.796875 6.203125 41.984375 11.859375 
Q 46.1875 17.53125 46.1875 27.296875 
Q 46.1875 37.015625 41.984375 42.703125 
Q 37.796875 48.390625 30.609375 48.390625 
z
M 30.609375 56 
Q 42.328125 56 49.015625 48.375 
Q 55.71875 40.765625 55.71875 27.296875 
Q 55.71875 13.875 49.015625 6.21875 
Q 42.328125 -1.421875 30.609375 -1.421875 
Q 18.84375 -1.421875 12.171875 6.21875 
Q 5.515625 13.875 5.515625 27.296875 
Q 5.515625 40.765625 12.171875 48.375 
Q 18.84375 56 30.609375 56 
z
" id="DejaVuSans-111"/>
       <path d="M 48.6875 27.296875 
Q 48.6875 37.203125 44.609375 42.84375 
Q 40.53125 48.484375 33.40625 48.484375 
Q 26.265625 48.484375 22.1875 42.84375 
Q 18.109375 37.203125 18.109375 27.296875 
Q 18.109375 17.390625 22.1875 11.75 
Q 26.265625 6.109375 33.40625 6.109375 
Q 40.53125 6.109375 44.609375 11.75 
Q 48.6875 17.390625 48.6875 27.296875 
z
M 18.109375 46.390625 
Q 20.953125 51.265625 25.265625 53.625 
Q 29.59375 56 35.59375 56 
Q 45.5625 56 51.78125 48.09375 
Q 58.015625 40.1875 58.015625 27.296875 
Q 58.015625 14.40625 51.78125 6.484375 
Q 45.5625 -1.421875 35.59375 -1.421875 
Q 29.59375 -1.421875 25.265625 0.953125 
Q 20.953125 3.328125 18.109375 8.203125 
L 18.109375 0 
L 9.078125 0 
L 9.078125 75.984375 
L 18.109375 75.984375 
z
" id="DejaVuSans-98"/>
      </defs>
      <g transform="translate(349.711963 322.182437)scale(0.1 -0.1)">
       <use xlink:href="#DejaVuSans-99"/>
       <use x="54.980469" xlink:href="#DejaVuSans-111"/>
       <use x="116.162109" xlink:href="#DejaVuSans-99"/>
       <use x="171.142578" xlink:href="#DejaVuSans-111"/>
       <use x="232.324219" xlink:href="#DejaVuSans-116"/>
       <use x="271.533203" xlink:href="#DejaVuSans-98"/>
      </g>
     </g>
    </g>
   </g>
   <g id="matplotlib.axis_2">
    <g id="ytick_1">
     <g id="line2d_6">
      <path clip-path="url(#p64e4805392)" d="M 57.6 307.584 
L 414.72 307.584 
" style="fill:none;stroke:#d3d3d3;stroke-linecap:square;stroke-width:0.8;"/>
     </g>
     <g id="line2d_7">
      <defs>
       <path d="M 0 0 
L -3.5 0 
" id="mcc4ddcb8c0" style="stroke:#000000;stroke-width:0.8;"/>
      </defs>
      <g>
       <use style="stroke:#000000;stroke-width:0.8;" x="57.6" xlink:href="#mcc4ddcb8c0" y="307.584"/>
      </g>
     </g>
     <g id="text_6">
      <!-- 0 -->
      <defs>
       <path d="M 31.78125 66.40625 
Q 24.171875 66.40625 20.328125 58.90625 
Q 16.5 51.421875 16.5 36.375 
Q 16.5 21.390625 20.328125 13.890625 
Q 24.171875 6.390625 31.78125 6.390625 
Q 39.453125 6.390625 43.28125 13.890625 
Q 47.125 21.390625 47.125 36.375 
Q 47.125 51.421875 43.28125 58.90625 
Q 39.453125 66.40625 31.78125 66.40625 
z
M 31.78125 74.21875 
Q 44.046875 74.21875 50.515625 64.515625 
Q 56.984375 54.828125 56.984375 36.375 
Q 56.984375 17.96875 50.515625 8.265625 
Q 44.046875 -1.421875 31.78125 -1.421875 
Q 19.53125 -1.421875 13.0625 8.265625 
Q 6.59375 17.96875 6.59375 36.375 
Q 6.59375 54.828125 13.0625 64.515625 
Q 19.53125 74.21875 31.78125 74.21875 
z
" id="DejaVuSans-48"/>
      </defs>
      <g transform="translate(44.2375 311.383219)scale(0.1 -0.1)">
       <use xlink:href="#DejaVuSans-48"/>
      </g>
     </g>
    </g>
    <g id="ytick_2">
     <g id="line2d_8">
      <path clip-path="url(#p64e4805392)" d="M 57.6 282.174918 
L 414.72 282.174918 
" style="fill:none;stroke:#d3d3d3;stroke-linecap:square;stroke-width:0.8;"/>
     </g>
     <g id="line2d_9">
      <g>
       <use style="stroke:#000000;stroke-width:0.8;" x="57.6" xlink:href="#mcc4ddcb8c0" y="282.174918"/>
      </g>
     </g>
     <g id="text_7">
      <!-- 10 -->
      <defs>
       <path d="M 12.40625 8.296875 
L 28.515625 8.296875 
L 28.515625 63.921875 
L 10.984375 60.40625 
L 10.984375 69.390625 
L 28.421875 72.90625 
L 38.28125 72.90625 
L 38.28125 8.296875 
L 54.390625 8.296875 
L 54.390625 0 
L 12.40625 0 
z
" id="DejaVuSans-49"/>
      </defs>
      <g transform="translate(37.875 285.974136)scale(0.1 -0.1)">
       <use xlink:href="#DejaVuSans-49"/>
       <use x="63.623047" xlink:href="#DejaVuSans-48"/>
      </g>
     </g>
    </g>
    <g id="ytick_3">
     <g id="line2d_10">
      <path clip-path="url(#p64e4805392)" d="M 57.6 256.765835 
L 414.72 256.765835 
" style="fill:none;stroke:#d3d3d3;stroke-linecap:square;stroke-width:0.8;"/>
     </g>
     <g id="line2d_11">
      <g>
       <use style="stroke:#000000;stroke-width:0.8;" x="57.6" xlink:href="#mcc4ddcb8c0" y="256.765835"/>
      </g>
     </g>
     <g id="text_8">
      <!-- 20 -->
      <defs>
       <path d="M 19.1875 8.296875 
L 53.609375 8.296875 
L 53.609375 0 
L 7.328125 0 
L 7.328125 8.296875 
Q 12.9375 14.109375 22.625 23.890625 
Q 32.328125 33.6875 34.8125 36.53125 
Q 39.546875 41.84375 41.421875 45.53125 
Q 43.3125 49.21875 43.3125 52.78125 
Q 43.3125 58.59375 39.234375 62.25 
Q 35.15625 65.921875 28.609375 65.921875 
Q 23.96875 65.921875 18.8125 64.3125 
Q 13.671875 62.703125 7.8125 59.421875 
L 7.8125 69.390625 
Q 13.765625 71.78125 18.9375 73 
Q 24.125 74.21875 28.421875 74.21875 
Q 39.75 74.21875 46.484375 68.546875 
Q 53.21875 62.890625 53.21875 53.421875 
Q 53.21875 48.921875 51.53125 44.890625 
Q 49.859375 40.875 45.40625 35.40625 
Q 44.1875 33.984375 37.640625 27.21875 
Q 31.109375 20.453125 19.1875 8.296875 
z
" id="DejaVuSans-50"/>
      </defs>
      <g transform="translate(37.875 260.565054)scale(0.1 -0.1)">
       <use xlink:href="#DejaVuSans-50"/>
       <use x="63.623047" xlink:href="#DejaVuSans-48"/>
      </g>
     </g>
    </g>
    <g id="ytick_4">
     <g id="line2d_12">
      <path clip-path="url(#p64e4805392)" d="M 57.6 231.356753 
L 414.72 231.356753 
" style="fill:none;stroke:#d3d3d3;stroke-linecap:square;stroke-width:0.8;"/>
     </g>
     <g id="line2d_13">
      <g>
       <use style="stroke:#000000;stroke-width:0.8;" x="57.6" xlink:href="#mcc4ddcb8c0" y="231.356753"/>
      </g>
     </g>
     <g id="text_9">
      <!-- 30 -->
      <defs>
       <path d="M 40.578125 39.3125 
Q 47.65625 37.796875 51.625 33 
Q 55.609375 28.21875 55.609375 21.1875 
Q 55.609375 10.40625 48.1875 4.484375 
Q 40.765625 -1.421875 27.09375 -1.421875 
Q 22.515625 -1.421875 17.65625 -0.515625 
Q 12.796875 0.390625 7.625 2.203125 
L 7.625 11.71875 
Q 11.71875 9.328125 16.59375 8.109375 
Q 21.484375 6.890625 26.8125 6.890625 
Q 36.078125 6.890625 40.9375 10.546875 
Q 45.796875 14.203125 45.796875 21.1875 
Q 45.796875 27.640625 41.28125 31.265625 
Q 36.765625 34.90625 28.71875 34.90625 
L 20.21875 34.90625 
L 20.21875 43.015625 
L 29.109375 43.015625 
Q 36.375 43.015625 40.234375 45.921875 
Q 44.09375 48.828125 44.09375 54.296875 
Q 44.09375 59.90625 40.109375 62.90625 
Q 36.140625 65.921875 28.71875 65.921875 
Q 24.65625 65.921875 20.015625 65.03125 
Q 15.375 64.15625 9.8125 62.3125 
L 9.8125 71.09375 
Q 15.4375 72.65625 20.34375 73.4375 
Q 25.25 74.21875 29.59375 74.21875 
Q 40.828125 74.21875 47.359375 69.109375 
Q 53.90625 64.015625 53.90625 55.328125 
Q 53.90625 49.265625 50.4375 45.09375 
Q 46.96875 40.921875 40.578125 39.3125 
z
" id="DejaVuSans-51"/>
      </defs>
      <g transform="translate(37.875 235.155972)scale(0.1 -0.1)">
       <use xlink:href="#DejaVuSans-51"/>
       <use x="63.623047" xlink:href="#DejaVuSans-48"/>
      </g>
     </g>
    </g>
    <g id="ytick_5">
     <g id="line2d_14">
      <path clip-path="url(#p64e4805392)" d="M 57.6 205.947671 
L 414.72 205.947671 
" style="fill:none;stroke:#d3d3d3;stroke-linecap:square;stroke-width:0.8;"/>
     </g>
     <g id="line2d_15">
      <g>
       <use style="stroke:#000000;stroke-width:0.8;" x="57.6" xlink:href="#mcc4ddcb8c0" y="205.947671"/>
      </g>
     </g>
     <g id="text_10">
      <!-- 40 -->
      <defs>
       <path d="M 37.796875 64.3125 
L 12.890625 25.390625 
L 37.796875 25.390625 
z
M 35.203125 72.90625 
L 47.609375 72.90625 
L 47.609375 25.390625 
L 58.015625 25.390625 
L 58.015625 17.1875 
L 47.609375 17.1875 
L 47.609375 0 
L 37.796875 0 
L 37.796875 17.1875 
L 4.890625 17.1875 
L 4.890625 26.703125 
z
" id="DejaVuSans-52"/>
      </defs>
      <g transform="translate(37.875 209.74689)scale(0.1 -0.1)">
       <use xlink:href="#DejaVuSans-52"/>
       <use x="63.623047" xlink:href="#DejaVuSans-48"/>
      </g>
     </g>
    </g>
    <g id="ytick_6">
     <g id="line2d_16">
      <path clip-path="url(#p64e4805392)" d="M 57.6 180.538589 
L 414.72 180.538589 
" style="fill:none;stroke:#d3d3d3;stroke-linecap:square;stroke-width:0.8;"/>
     </g>
     <g id="line2d_17">
      <g>
       <use style="stroke:#000000;stroke-width:0.8;" x="57.6" xlink:href="#mcc4ddcb8c0" y="180.538589"/>
      </g>
     </g>
     <g id="text_11">
      <!-- 50 -->
      <defs>
       <path d="M 10.796875 72.90625 
L 49.515625 72.90625 
L 49.515625 64.59375 
L 19.828125 64.59375 
L 19.828125 46.734375 
Q 21.96875 47.46875 24.109375 47.828125 
Q 26.265625 48.1875 28.421875 48.1875 
Q 40.625 48.1875 47.75 41.5 
Q 54.890625 34.8125 54.890625 23.390625 
Q 54.890625 11.625 47.5625 5.09375 
Q 40.234375 -1.421875 26.90625 -1.421875 
Q 22.3125 -1.421875 17.546875 -0.640625 
Q 12.796875 0.140625 7.71875 1.703125 
L 7.71875 11.625 
Q 12.109375 9.234375 16.796875 8.0625 
Q 21.484375 6.890625 26.703125 6.890625 
Q 35.15625 6.890625 40.078125 11.328125 
Q 45.015625 15.765625 45.015625 23.390625 
Q 45.015625 31 40.078125 35.4375 
Q 35.15625 39.890625 26.703125 39.890625 
Q 22.75 39.890625 18.8125 39.015625 
Q 14.890625 38.140625 10.796875 36.28125 
z
" id="DejaVuSans-53"/>
      </defs>
      <g transform="translate(37.875 184.337807)scale(0.1 -0.1)">
       <use xlink:href="#DejaVuSans-53"/>
       <use x="63.623047" xlink:href="#DejaVuSans-48"/>
      </g>
     </g>
    </g>
    <g id="ytick_7">
     <g id="line2d_18">
      <path clip-path="url(#p64e4805392)" d="M 57.6 155.129506 
L 414.72 155.129506 
" style="fill:none;stroke:#d3d3d3;stroke-linecap:square;stroke-width:0.8;"/>
     </g>
     <g id="line2d_19">
      <g>
       <use style="stroke:#000000;stroke-width:0.8;" x="57.6" xlink:href="#mcc4ddcb8c0" y="155.129506"/>
      </g>
     </g>
     <g id="text_12">
      <!-- 60 -->
      <defs>
       <path d="M 33.015625 40.375 
Q 26.375 40.375 22.484375 35.828125 
Q 18.609375 31.296875 18.609375 23.390625 
Q 18.609375 15.53125 22.484375 10.953125 
Q 26.375 6.390625 33.015625 6.390625 
Q 39.65625 6.390625 43.53125 10.953125 
Q 47.40625 15.53125 47.40625 23.390625 
Q 47.40625 31.296875 43.53125 35.828125 
Q 39.65625 40.375 33.015625 40.375 
z
M 52.59375 71.296875 
L 52.59375 62.3125 
Q 48.875 64.0625 45.09375 64.984375 
Q 41.3125 65.921875 37.59375 65.921875 
Q 27.828125 65.921875 22.671875 59.328125 
Q 17.53125 52.734375 16.796875 39.40625 
Q 19.671875 43.65625 24.015625 45.921875 
Q 28.375 48.1875 33.59375 48.1875 
Q 44.578125 48.1875 50.953125 41.515625 
Q 57.328125 34.859375 57.328125 23.390625 
Q 57.328125 12.15625 50.6875 5.359375 
Q 44.046875 -1.421875 33.015625 -1.421875 
Q 20.359375 -1.421875 13.671875 8.265625 
Q 6.984375 17.96875 6.984375 36.375 
Q 6.984375 53.65625 15.1875 63.9375 
Q 23.390625 74.21875 37.203125 74.21875 
Q 40.921875 74.21875 44.703125 73.484375 
Q 48.484375 72.75 52.59375 71.296875 
z
" id="DejaVuSans-54"/>
      </defs>
      <g transform="translate(37.875 158.928725)scale(0.1 -0.1)">
       <use xlink:href="#DejaVuSans-54"/>
       <use x="63.623047" xlink:href="#DejaVuSans-48"/>
      </g>
     </g>
    </g>
    <g id="ytick_8">
     <g id="line2d_20">
      <path clip-path="url(#p64e4805392)" d="M 57.6 129.720424 
L 414.72 129.720424 
" style="fill:none;stroke:#d3d3d3;stroke-linecap:square;stroke-width:0.8;"/>
     </g>
     <g id="line2d_21">
      <g>
       <use style="stroke:#000000;stroke-width:0.8;" x="57.6" xlink:href="#mcc4ddcb8c0" y="129.720424"/>
      </g>
     </g>
     <g id="text_13">
      <!-- 70 -->
      <defs>
       <path d="M 8.203125 72.90625 
L 55.078125 72.90625 
L 55.078125 68.703125 
L 28.609375 0 
L 18.3125 0 
L 43.21875 64.59375 
L 8.203125 64.59375 
z
" id="DejaVuSans-55"/>
      </defs>
      <g transform="translate(37.875 133.519643)scale(0.1 -0.1)">
       <use xlink:href="#DejaVuSans-55"/>
       <use x="63.623047" xlink:href="#DejaVuSans-48"/>
      </g>
     </g>
    </g>
    <g id="ytick_9">
     <g id="line2d_22">
      <path clip-path="url(#p64e4805392)" d="M 57.6 104.311342 
L 414.72 104.311342 
" style="fill:none;stroke:#d3d3d3;stroke-linecap:square;stroke-width:0.8;"/>
     </g>
     <g id="line2d_23">
      <g>
       <use style="stroke:#000000;stroke-width:0.8;" x="57.6" xlink:href="#mcc4ddcb8c0" y="104.311342"/>
      </g>
     </g>
     <g id="text_14">
      <!-- 80 -->
      <defs>
       <path d="M 31.78125 34.625 
Q 24.75 34.625 20.71875 30.859375 
Q 16.703125 27.09375 16.703125 20.515625 
Q 16.703125 13.921875 20.71875 10.15625 
Q 24.75 6.390625 31.78125 6.390625 
Q 38.8125 6.390625 42.859375 10.171875 
Q 46.921875 13.96875 46.921875 20.515625 
Q 46.921875 27.09375 42.890625 30.859375 
Q 38.875 34.625 31.78125 34.625 
z
M 21.921875 38.8125 
Q 15.578125 40.375 12.03125 44.71875 
Q 8.5 49.078125 8.5 55.328125 
Q 8.5 64.0625 14.71875 69.140625 
Q 20.953125 74.21875 31.78125 74.21875 
Q 42.671875 74.21875 48.875 69.140625 
Q 55.078125 64.0625 55.078125 55.328125 
Q 55.078125 49.078125 51.53125 44.71875 
Q 48 40.375 41.703125 38.8125 
Q 48.828125 37.15625 52.796875 32.3125 
Q 56.78125 27.484375 56.78125 20.515625 
Q 56.78125 9.90625 50.3125 4.234375 
Q 43.84375 -1.421875 31.78125 -1.421875 
Q 19.734375 -1.421875 13.25 4.234375 
Q 6.78125 9.90625 6.78125 20.515625 
Q 6.78125 27.484375 10.78125 32.3125 
Q 14.796875 37.15625 21.921875 38.8125 
z
M 18.3125 54.390625 
Q 18.3125 48.734375 21.84375 45.5625 
Q 25.390625 42.390625 31.78125 42.390625 
Q 38.140625 42.390625 41.71875 45.5625 
Q 45.3125 48.734375 45.3125 54.390625 
Q 45.3125 60.0625 41.71875 63.234375 
Q 38.140625 66.40625 31.78125 66.40625 
Q 25.390625 66.40625 21.84375 63.234375 
Q 18.3125 60.0625 18.3125 54.390625 
z
" id="DejaVuSans-56"/>
      </defs>
      <g transform="translate(37.875 108.11056)scale(0.1 -0.1)">
       <use xlink:href="#DejaVuSans-56"/>
       <use x="63.623047" xlink:href="#DejaVuSans-48"/>
      </g>
     </g>
    </g>
    <g id="ytick_10">
     <g id="line2d_24">
      <path clip-path="url(#p64e4805392)" d="M 57.6 78.902259 
L 414.72 78.902259 
" style="fill:none;stroke:#d3d3d3;stroke-linecap:square;stroke-width:0.8;"/>
     </g>
     <g id="line2d_25">
      <g>
       <use style="stroke:#000000;stroke-width:0.8;" x="57.6" xlink:href="#mcc4ddcb8c0" y="78.902259"/>
      </g>
     </g>
     <g id="text_15">
      <!-- 90 -->
      <defs>
       <path d="M 10.984375 1.515625 
L 10.984375 10.5 
Q 14.703125 8.734375 18.5 7.8125 
Q 22.3125 6.890625 25.984375 6.890625 
Q 35.75 6.890625 40.890625 13.453125 
Q 46.046875 20.015625 46.78125 33.40625 
Q 43.953125 29.203125 39.59375 26.953125 
Q 35.25 24.703125 29.984375 24.703125 
Q 19.046875 24.703125 12.671875 31.3125 
Q 6.296875 37.9375 6.296875 49.421875 
Q 6.296875 60.640625 12.9375 67.421875 
Q 19.578125 74.21875 30.609375 74.21875 
Q 43.265625 74.21875 49.921875 64.515625 
Q 56.59375 54.828125 56.59375 36.375 
Q 56.59375 19.140625 48.40625 8.859375 
Q 40.234375 -1.421875 26.421875 -1.421875 
Q 22.703125 -1.421875 18.890625 -0.6875 
Q 15.09375 0.046875 10.984375 1.515625 
z
M 30.609375 32.421875 
Q 37.25 32.421875 41.125 36.953125 
Q 45.015625 41.5 45.015625 49.421875 
Q 45.015625 57.28125 41.125 61.84375 
Q 37.25 66.40625 30.609375 66.40625 
Q 23.96875 66.40625 20.09375 61.84375 
Q 16.21875 57.28125 16.21875 49.421875 
Q 16.21875 41.5 20.09375 36.953125 
Q 23.96875 32.421875 30.609375 32.421875 
z
" id="DejaVuSans-57"/>
      </defs>
      <g transform="translate(37.875 82.701478)scale(0.1 -0.1)">
       <use xlink:href="#DejaVuSans-57"/>
       <use x="63.623047" xlink:href="#DejaVuSans-48"/>
      </g>
     </g>
    </g>
    <g id="ytick_11">
     <g id="line2d_26">
      <path clip-path="url(#p64e4805392)" d="M 57.6 53.493177 
L 414.72 53.493177 
" style="fill:none;stroke:#d3d3d3;stroke-linecap:square;stroke-width:0.8;"/>
     </g>
     <g id="line2d_27">
      <g>
       <use style="stroke:#000000;stroke-width:0.8;" x="57.6" xlink:href="#mcc4ddcb8c0" y="53.493177"/>
      </g>
     </g>
     <g id="text_16">
      <!-- 100 -->
      <g transform="translate(31.5125 57.292396)scale(0.1 -0.1)">
       <use xlink:href="#DejaVuSans-49"/>
       <use x="63.623047" xlink:href="#DejaVuSans-48"/>
       <use x="127.246094" xlink:href="#DejaVuSans-48"/>
      </g>
     </g>
    </g>
    <g id="text_17">
     <!-- Percentage of Framework Users -->
     <defs>
      <path d="M 19.671875 64.796875 
L 19.671875 37.40625 
L 32.078125 37.40625 
Q 38.96875 37.40625 42.71875 40.96875 
Q 46.484375 44.53125 46.484375 51.125 
Q 46.484375 57.671875 42.71875 61.234375 
Q 38.96875 64.796875 32.078125 64.796875 
z
M 9.8125 72.90625 
L 32.078125 72.90625 
Q 44.34375 72.90625 50.609375 67.359375 
Q 56.890625 61.8125 56.890625 51.125 
Q 56.890625 40.328125 50.609375 34.8125 
Q 44.34375 29.296875 32.078125 29.296875 
L 19.671875 29.296875 
L 19.671875 0 
L 9.8125 0 
z
" id="DejaVuSans-80"/>
      <path d="M 56.203125 29.59375 
L 56.203125 25.203125 
L 14.890625 25.203125 
Q 15.484375 15.921875 20.484375 11.0625 
Q 25.484375 6.203125 34.421875 6.203125 
Q 39.59375 6.203125 44.453125 7.46875 
Q 49.3125 8.734375 54.109375 11.28125 
L 54.109375 2.78125 
Q 49.265625 0.734375 44.1875 -0.34375 
Q 39.109375 -1.421875 33.890625 -1.421875 
Q 20.796875 -1.421875 13.15625 6.1875 
Q 5.515625 13.8125 5.515625 26.8125 
Q 5.515625 40.234375 12.765625 48.109375 
Q 20.015625 56 32.328125 56 
Q 43.359375 56 49.78125 48.890625 
Q 56.203125 41.796875 56.203125 29.59375 
z
M 47.21875 32.234375 
Q 47.125 39.59375 43.09375 43.984375 
Q 39.0625 48.390625 32.421875 48.390625 
Q 24.90625 48.390625 20.390625 44.140625 
Q 15.875 39.890625 15.1875 32.171875 
z
" id="DejaVuSans-101"/>
      <path d="M 41.109375 46.296875 
Q 39.59375 47.171875 37.8125 47.578125 
Q 36.03125 48 33.890625 48 
Q 26.265625 48 22.1875 43.046875 
Q 18.109375 38.09375 18.109375 28.8125 
L 18.109375 0 
L 9.078125 0 
L 9.078125 54.6875 
L 18.109375 54.6875 
L 18.109375 46.1875 
Q 20.953125 51.171875 25.484375 53.578125 
Q 30.03125 56 36.53125 56 
Q 37.453125 56 38.578125 55.875 
Q 39.703125 55.765625 41.0625 55.515625 
z
" id="DejaVuSans-114"/>
      <path d="M 34.28125 27.484375 
Q 23.390625 27.484375 19.1875 25 
Q 14.984375 22.515625 14.984375 16.5 
Q 14.984375 11.71875 18.140625 8.90625 
Q 21.296875 6.109375 26.703125 6.109375 
Q 34.1875 6.109375 38.703125 11.40625 
Q 43.21875 16.703125 43.21875 25.484375 
L 43.21875 27.484375 
z
M 52.203125 31.203125 
L 52.203125 0 
L 43.21875 0 
L 43.21875 8.296875 
Q 40.140625 3.328125 35.546875 0.953125 
Q 30.953125 -1.421875 24.3125 -1.421875 
Q 15.921875 -1.421875 10.953125 3.296875 
Q 6 8.015625 6 15.921875 
Q 6 25.140625 12.171875 29.828125 
Q 18.359375 34.515625 30.609375 34.515625 
L 43.21875 34.515625 
L 43.21875 35.40625 
Q 43.21875 41.609375 39.140625 45 
Q 35.0625 48.390625 27.6875 48.390625 
Q 23 48.390625 18.546875 47.265625 
Q 14.109375 46.140625 10.015625 43.890625 
L 10.015625 52.203125 
Q 14.9375 54.109375 19.578125 55.046875 
Q 24.21875 56 28.609375 56 
Q 40.484375 56 46.34375 49.84375 
Q 52.203125 43.703125 52.203125 31.203125 
z
" id="DejaVuSans-97"/>
      <path d="M 45.40625 27.984375 
Q 45.40625 37.75 41.375 43.109375 
Q 37.359375 48.484375 30.078125 48.484375 
Q 22.859375 48.484375 18.828125 43.109375 
Q 14.796875 37.75 14.796875 27.984375 
Q 14.796875 18.265625 18.828125 12.890625 
Q 22.859375 7.515625 30.078125 7.515625 
Q 37.359375 7.515625 41.375 12.890625 
Q 45.40625 18.265625 45.40625 27.984375 
z
M 54.390625 6.78125 
Q 54.390625 -7.171875 48.1875 -13.984375 
Q 42 -20.796875 29.203125 -20.796875 
Q 24.46875 -20.796875 20.265625 -20.09375 
Q 16.0625 -19.390625 12.109375 -17.921875 
L 12.109375 -9.1875 
Q 16.0625 -11.328125 19.921875 -12.34375 
Q 23.78125 -13.375 27.78125 -13.375 
Q 36.625 -13.375 41.015625 -8.765625 
Q 45.40625 -4.15625 45.40625 5.171875 
L 45.40625 9.625 
Q 42.625 4.78125 38.28125 2.390625 
Q 33.9375 0 27.875 0 
Q 17.828125 0 11.671875 7.65625 
Q 5.515625 15.328125 5.515625 27.984375 
Q 5.515625 40.671875 11.671875 48.328125 
Q 17.828125 56 27.875 56 
Q 33.9375 56 38.28125 53.609375 
Q 42.625 51.21875 45.40625 46.390625 
L 45.40625 54.6875 
L 54.390625 54.6875 
z
" id="DejaVuSans-103"/>
      <path id="DejaVuSans-32"/>
      <path d="M 37.109375 75.984375 
L 37.109375 68.5 
L 28.515625 68.5 
Q 23.6875 68.5 21.796875 66.546875 
Q 19.921875 64.59375 19.921875 59.515625 
L 19.921875 54.6875 
L 34.71875 54.6875 
L 34.71875 47.703125 
L 19.921875 47.703125 
L 19.921875 0 
L 10.890625 0 
L 10.890625 47.703125 
L 2.296875 47.703125 
L 2.296875 54.6875 
L 10.890625 54.6875 
L 10.890625 58.5 
Q 10.890625 67.625 15.140625 71.796875 
Q 19.390625 75.984375 28.609375 75.984375 
z
" id="DejaVuSans-102"/>
      <path d="M 9.8125 72.90625 
L 51.703125 72.90625 
L 51.703125 64.59375 
L 19.671875 64.59375 
L 19.671875 43.109375 
L 48.578125 43.109375 
L 48.578125 34.8125 
L 19.671875 34.8125 
L 19.671875 0 
L 9.8125 0 
z
" id="DejaVuSans-70"/>
      <path d="M 52 44.1875 
Q 55.375 50.25 60.0625 53.125 
Q 64.75 56 71.09375 56 
Q 79.640625 56 84.28125 50.015625 
Q 88.921875 44.046875 88.921875 33.015625 
L 88.921875 0 
L 79.890625 0 
L 79.890625 32.71875 
Q 79.890625 40.578125 77.09375 44.375 
Q 74.3125 48.1875 68.609375 48.1875 
Q 61.625 48.1875 57.5625 43.546875 
Q 53.515625 38.921875 53.515625 30.90625 
L 53.515625 0 
L 44.484375 0 
L 44.484375 32.71875 
Q 44.484375 40.625 41.703125 44.40625 
Q 38.921875 48.1875 33.109375 48.1875 
Q 26.21875 48.1875 22.15625 43.53125 
Q 18.109375 38.875 18.109375 30.90625 
L 18.109375 0 
L 9.078125 0 
L 9.078125 54.6875 
L 18.109375 54.6875 
L 18.109375 46.1875 
Q 21.1875 51.21875 25.484375 53.609375 
Q 29.78125 56 35.6875 56 
Q 41.65625 56 45.828125 52.96875 
Q 50 49.953125 52 44.1875 
z
" id="DejaVuSans-109"/>
      <path d="M 4.203125 54.6875 
L 13.1875 54.6875 
L 24.421875 12.015625 
L 35.59375 54.6875 
L 46.1875 54.6875 
L 57.421875 12.015625 
L 68.609375 54.6875 
L 77.59375 54.6875 
L 63.28125 0 
L 52.6875 0 
L 40.921875 44.828125 
L 29.109375 0 
L 18.5 0 
z
" id="DejaVuSans-119"/>
      <path d="M 9.078125 75.984375 
L 18.109375 75.984375 
L 18.109375 31.109375 
L 44.921875 54.6875 
L 56.390625 54.6875 
L 27.390625 29.109375 
L 57.625 0 
L 45.90625 0 
L 18.109375 26.703125 
L 18.109375 0 
L 9.078125 0 
z
" id="DejaVuSans-107"/>
      <path d="M 44.28125 53.078125 
L 44.28125 44.578125 
Q 40.484375 46.53125 36.375 47.5 
Q 32.28125 48.484375 27.875 48.484375 
Q 21.1875 48.484375 17.84375 46.4375 
Q 14.5 44.390625 14.5 40.28125 
Q 14.5 37.15625 16.890625 35.375 
Q 19.28125 33.59375 26.515625 31.984375 
L 29.59375 31.296875 
Q 39.15625 29.25 43.1875 25.515625 
Q 47.21875 21.78125 47.21875 15.09375 
Q 47.21875 7.46875 41.1875 3.015625 
Q 35.15625 -1.421875 24.609375 -1.421875 
Q 20.21875 -1.421875 15.453125 -0.5625 
Q 10.6875 0.296875 5.421875 2 
L 5.421875 11.28125 
Q 10.40625 8.6875 15.234375 7.390625 
Q 20.0625 6.109375 24.8125 6.109375 
Q 31.15625 6.109375 34.5625 8.28125 
Q 37.984375 10.453125 37.984375 14.40625 
Q 37.984375 18.0625 35.515625 20.015625 
Q 33.0625 21.96875 24.703125 23.78125 
L 21.578125 24.515625 
Q 13.234375 26.265625 9.515625 29.90625 
Q 5.8125 33.546875 5.8125 39.890625 
Q 5.8125 47.609375 11.28125 51.796875 
Q 16.75 56 26.8125 56 
Q 31.78125 56 36.171875 55.265625 
Q 40.578125 54.546875 44.28125 53.078125 
z
" id="DejaVuSans-115"/>
     </defs>
     <g transform="translate(25.432812 253.917062)rotate(-90)scale(0.1 -0.1)">
      <use xlink:href="#DejaVuSans-80"/>
      <use x="56.677734" xlink:href="#DejaVuSans-101"/>
      <use x="118.201172" xlink:href="#DejaVuSans-114"/>
      <use x="157.064453" xlink:href="#DejaVuSans-99"/>
      <use x="212.044922" xlink:href="#DejaVuSans-101"/>
      <use x="273.568359" xlink:href="#DejaVuSans-110"/>
      <use x="336.947266" xlink:href="#DejaVuSans-116"/>
      <use x="376.15625" xlink:href="#DejaVuSans-97"/>
      <use x="437.435547" xlink:href="#DejaVuSans-103"/>
      <use x="500.912109" xlink:href="#DejaVuSans-101"/>
      <use x="562.435547" xlink:href="#DejaVuSans-32"/>
      <use x="594.222656" xlink:href="#DejaVuSans-111"/>
      <use x="655.404297" xlink:href="#DejaVuSans-102"/>
      <use x="690.609375" xlink:href="#DejaVuSans-32"/>
      <use x="722.396484" xlink:href="#DejaVuSans-70"/>
      <use x="772.666016" xlink:href="#DejaVuSans-114"/>
      <use x="813.779297" xlink:href="#DejaVuSans-97"/>
      <use x="875.058594" xlink:href="#DejaVuSans-109"/>
      <use x="972.470703" xlink:href="#DejaVuSans-101"/>
      <use x="1033.994141" xlink:href="#DejaVuSans-119"/>
      <use x="1115.78125" xlink:href="#DejaVuSans-111"/>
      <use x="1176.962891" xlink:href="#DejaVuSans-114"/>
      <use x="1218.076172" xlink:href="#DejaVuSans-107"/>
      <use x="1275.986328" xlink:href="#DejaVuSans-32"/>
      <use x="1307.773438" xlink:href="#DejaVuSans-85"/>
      <use x="1380.966797" xlink:href="#DejaVuSans-115"/>
      <use x="1433.066406" xlink:href="#DejaVuSans-101"/>
      <use x="1494.589844" xlink:href="#DejaVuSans-114"/>
      <use x="1535.703125" xlink:href="#DejaVuSans-115"/>
     </g>
    </g>
   </g>
   <g id="LineCollection_1">
    <path clip-path="url(#p64e4805392)" d="M 88.1882 179.433846 
L 88.1882 156.165358 
" style="fill:none;stroke:#0000ff;stroke-width:1.5;"/>
   </g>
   <g id="LineCollection_2">
    <path clip-path="url(#p64e4805392)" d="M 88.1882 202.694355 
L 88.1882 179.433846 
" style="fill:none;stroke:#0000ff;stroke-width:1.5;"/>
   </g>
   <g id="LineCollection_3">
    <path clip-path="url(#p64e4805392)" d="M 103.647941 181.643331 
L 103.647941 158.382822 
" style="fill:none;stroke:#008000;stroke-width:1.5;"/>
   </g>
   <g id="LineCollection_4">
    <path clip-path="url(#p64e4805392)" d="M 103.647941 204.911819 
L 103.647941 181.643331 
" style="fill:none;stroke:#008000;stroke-width:1.5;"/>
   </g>
   <g id="LineCollection_5">
    <path clip-path="url(#p64e4805392)" d="M 121.316215 307.584 
L 121.316215 299.284102 
" style="fill:none;stroke:#ff0000;stroke-width:1.5;"/>
   </g>
   <g id="LineCollection_6">
    <path clip-path="url(#p64e4805392)" d="M 121.316215 307.584 
L 121.316215 307.584 
" style="fill:none;stroke:#ff0000;stroke-width:1.5;"/>
   </g>
   <g id="LineCollection_7">
    <path clip-path="url(#p64e4805392)" d="M 154.44423 259.512763 
L 154.44423 218.746594 
" style="fill:none;stroke:#ff0000;stroke-width:1.5;"/>
   </g>
   <g id="LineCollection_8">
    <path clip-path="url(#p64e4805392)" d="M 154.44423 284.57204 
L 154.44423 259.512763 
" style="fill:none;stroke:#ff0000;stroke-width:1.5;"/>
   </g>
   <g id="LineCollection_9">
    <path clip-path="url(#p64e4805392)" d="M 169.90397 101.564414 
L 169.90397 76.505137 
" style="fill:none;stroke:#ff0000;stroke-width:1.5;"/>
   </g>
   <g id="LineCollection_10">
    <path clip-path="url(#p64e4805392)" d="M 169.90397 142.330583 
L 169.90397 101.564414 
" style="fill:none;stroke:#ff0000;stroke-width:1.5;"/>
   </g>
   <g id="LineCollection_11">
    <path clip-path="url(#p64e4805392)" d="M 187.572245 307.584 
L 187.572245 284.57204 
" style="fill:none;stroke:#ff0000;stroke-width:1.5;"/>
   </g>
   <g id="LineCollection_12">
    <path clip-path="url(#p64e4805392)" d="M 187.572245 307.584 
L 187.572245 307.584 
" style="fill:none;stroke:#ff0000;stroke-width:1.5;"/>
   </g>
   <g id="LineCollection_13">
    <path clip-path="url(#p64e4805392)" d="M 220.70026 294.879459 
L 220.70026 245.519983 
" style="fill:none;stroke:#ff0000;stroke-width:1.5;"/>
   </g>
   <g id="LineCollection_14">
    <path clip-path="url(#p64e4805392)" d="M 220.70026 306.933177 
L 220.70026 294.879459 
" style="fill:none;stroke:#ff0000;stroke-width:1.5;"/>
   </g>
   <g id="LineCollection_15">
    <path clip-path="url(#p64e4805392)" d="M 236.16 66.197718 
L 236.16 54.144 
" style="fill:none;stroke:#ff0000;stroke-width:1.5;"/>
   </g>
   <g id="LineCollection_16">
    <path clip-path="url(#p64e4805392)" d="M 236.16 115.557194 
L 236.16 66.197718 
" style="fill:none;stroke:#ff0000;stroke-width:1.5;"/>
   </g>
   <g id="LineCollection_17">
    <path clip-path="url(#p64e4805392)" d="M 253.828275 307.584 
L 253.828275 265.196321 
" style="fill:none;stroke:#0000ff;stroke-width:1.5;"/>
   </g>
   <g id="LineCollection_18">
    <path clip-path="url(#p64e4805392)" d="M 253.828275 307.584 
L 253.828275 307.584 
" style="fill:none;stroke:#0000ff;stroke-width:1.5;"/>
   </g>
   <g id="LineCollection_19">
    <path clip-path="url(#p64e4805392)" d="M 286.956289 180.538589 
L 286.956289 146.236938 
" style="fill:none;stroke:#008000;stroke-width:1.5;"/>
   </g>
   <g id="LineCollection_20">
    <path clip-path="url(#p64e4805392)" d="M 286.956289 214.840239 
L 286.956289 180.538589 
" style="fill:none;stroke:#008000;stroke-width:1.5;"/>
   </g>
   <g id="LineCollection_21">
    <path clip-path="url(#p64e4805392)" d="M 302.41603 212.299941 
L 302.41603 178.256266 
" style="fill:none;stroke:#008000;stroke-width:1.5;"/>
   </g>
   <g id="LineCollection_22">
    <path clip-path="url(#p64e4805392)" d="M 302.41603 242.137566 
L 302.41603 212.299941 
" style="fill:none;stroke:#008000;stroke-width:1.5;"/>
   </g>
   <g id="LineCollection_23">
    <path clip-path="url(#p64e4805392)" d="M 320.084304 275.822647 
L 320.084304 246.782985 
" style="fill:none;stroke:#008000;stroke-width:1.5;"/>
   </g>
   <g id="LineCollection_24">
    <path clip-path="url(#p64e4805392)" d="M 320.084304 292.340894 
L 320.084304 275.822647 
" style="fill:none;stroke:#008000;stroke-width:1.5;"/>
   </g>
   <g id="LineCollection_25">
    <path clip-path="url(#p64e4805392)" d="M 353.212319 234.28857 
L 353.212319 205.112116 
" style="fill:none;stroke:#0000ff;stroke-width:1.5;"/>
   </g>
   <g id="LineCollection_26">
    <path clip-path="url(#p64e4805392)" d="M 353.212319 266.797586 
L 353.212319 234.28857 
" style="fill:none;stroke:#0000ff;stroke-width:1.5;"/>
   </g>
   <g id="LineCollection_27">
    <path clip-path="url(#p64e4805392)" d="M 368.672059 141.447693 
L 368.672059 111.72501 
" style="fill:none;stroke:#ff0000;stroke-width:1.5;"/>
   </g>
   <g id="LineCollection_28">
    <path clip-path="url(#p64e4805392)" d="M 368.672059 178.074549 
L 368.672059 141.447693 
" style="fill:none;stroke:#ff0000;stroke-width:1.5;"/>
   </g>
   <g id="LineCollection_29">
    <path clip-path="url(#p64e4805392)" d="M 386.340334 292.924914 
L 386.340334 266.797585 
" style="fill:none;stroke:#0000ff;stroke-width:1.5;"/>
   </g>
   <g id="LineCollection_30">
    <path clip-path="url(#p64e4805392)" d="M 386.340334 303.541986 
L 386.340334 292.924914 
" style="fill:none;stroke:#0000ff;stroke-width:1.5;"/>
   </g>
   <g id="line2d_28">
    <defs>
     <path d="M 2 0 
L 0 -3 
L -2 -0 
" id="m593ec21f65" style="stroke:#0000ff;stroke-linejoin:miter;"/>
    </defs>
    <g clip-path="url(#p64e4805392)">
     <use style="fill:#0000ff;stroke:#0000ff;stroke-linejoin:miter;" x="88.1882" xlink:href="#m593ec21f65" y="156.165358"/>
    </g>
   </g>
   <g id="line2d_29">
    <defs>
     <path d="M 2 0 
L -2 -0 
" id="md04d172f30" style="stroke:#0000ff;"/>
    </defs>
    <g clip-path="url(#p64e4805392)">
     <use style="fill:#0000ff;stroke:#0000ff;" x="88.1882" xlink:href="#md04d172f30" y="179.433846"/>
    </g>
   </g>
   <g id="line2d_30">
    <defs>
     <path d="M -2 0 
L 0 3 
L 2 0 
" id="m800be4b6e5" style="stroke:#0000ff;stroke-linejoin:miter;"/>
    </defs>
    <g clip-path="url(#p64e4805392)">
     <use style="fill:#0000ff;stroke:#0000ff;stroke-linejoin:miter;" x="88.1882" xlink:href="#m800be4b6e5" y="202.694355"/>
    </g>
   </g>
   <g id="line2d_31">
    <g clip-path="url(#p64e4805392)">
     <use style="fill:#0000ff;stroke:#0000ff;" x="88.1882" xlink:href="#md04d172f30" y="179.433846"/>
    </g>
   </g>
   <g id="line2d_32">
    <defs>
     <path d="M 2 0 
L 0 -3 
L -2 -0 
" id="m2035f85001" style="stroke:#008000;stroke-linejoin:miter;"/>
    </defs>
    <g clip-path="url(#p64e4805392)">
     <use style="fill:#008000;stroke:#008000;stroke-linejoin:miter;" x="103.647941" xlink:href="#m2035f85001" y="158.382822"/>
    </g>
   </g>
   <g id="line2d_33">
    <defs>
     <path d="M 2 0 
L -2 -0 
" id="mf71a70a538" style="stroke:#008000;"/>
    </defs>
    <g clip-path="url(#p64e4805392)">
     <use style="fill:#008000;stroke:#008000;" x="103.647941" xlink:href="#mf71a70a538" y="181.643331"/>
    </g>
   </g>
   <g id="line2d_34">
    <defs>
     <path d="M -2 0 
L 0 3 
L 2 0 
" id="m6f1c2deb48" style="stroke:#008000;stroke-linejoin:miter;"/>
    </defs>
    <g clip-path="url(#p64e4805392)">
     <use style="fill:#008000;stroke:#008000;stroke-linejoin:miter;" x="103.647941" xlink:href="#m6f1c2deb48" y="204.911819"/>
    </g>
   </g>
   <g id="line2d_35">
    <g clip-path="url(#p64e4805392)">
     <use style="fill:#008000;stroke:#008000;" x="103.647941" xlink:href="#mf71a70a538" y="181.643331"/>
    </g>
   </g>
   <g id="line2d_36">
    <defs>
     <path d="M 2 0 
L 0 -3 
L -2 -0 
" id="ma8cb190a26" style="stroke:#ff0000;stroke-linejoin:miter;"/>
    </defs>
    <g clip-path="url(#p64e4805392)">
     <use style="fill:#ff0000;stroke:#ff0000;stroke-linejoin:miter;" x="121.316215" xlink:href="#ma8cb190a26" y="299.284102"/>
    </g>
   </g>
   <g id="line2d_37">
    <defs>
     <path d="M 2 0 
L -2 -0 
" id="m6ba6550238" style="stroke:#ff0000;"/>
    </defs>
    <g clip-path="url(#p64e4805392)">
     <use style="fill:#ff0000;stroke:#ff0000;" x="121.316215" xlink:href="#m6ba6550238" y="307.584"/>
    </g>
   </g>
   <g id="line2d_38">
    <defs>
     <path d="M -2 0 
L 0 3 
L 2 0 
" id="mdc2167ddb6" style="stroke:#ff0000;stroke-linejoin:miter;"/>
    </defs>
    <g clip-path="url(#p64e4805392)">
     <use style="fill:#ff0000;stroke:#ff0000;stroke-linejoin:miter;" x="121.316215" xlink:href="#mdc2167ddb6" y="307.584"/>
    </g>
   </g>
   <g id="line2d_39">
    <g clip-path="url(#p64e4805392)">
     <use style="fill:#ff0000;stroke:#ff0000;" x="121.316215" xlink:href="#m6ba6550238" y="307.584"/>
    </g>
   </g>
   <g id="line2d_40">
    <g clip-path="url(#p64e4805392)">
     <use style="fill:#ff0000;stroke:#ff0000;stroke-linejoin:miter;" x="154.44423" xlink:href="#ma8cb190a26" y="218.746594"/>
    </g>
   </g>
   <g id="line2d_41">
    <g clip-path="url(#p64e4805392)">
     <use style="fill:#ff0000;stroke:#ff0000;" x="154.44423" xlink:href="#m6ba6550238" y="259.512763"/>
    </g>
   </g>
   <g id="line2d_42">
    <g clip-path="url(#p64e4805392)">
     <use style="fill:#ff0000;stroke:#ff0000;stroke-linejoin:miter;" x="154.44423" xlink:href="#mdc2167ddb6" y="284.57204"/>
    </g>
   </g>
   <g id="line2d_43">
    <g clip-path="url(#p64e4805392)">
     <use style="fill:#ff0000;stroke:#ff0000;" x="154.44423" xlink:href="#m6ba6550238" y="259.512763"/>
    </g>
   </g>
   <g id="line2d_44">
    <g clip-path="url(#p64e4805392)">
     <use style="fill:#ff0000;stroke:#ff0000;stroke-linejoin:miter;" x="169.90397" xlink:href="#ma8cb190a26" y="76.505137"/>
    </g>
   </g>
   <g id="line2d_45">
    <g clip-path="url(#p64e4805392)">
     <use style="fill:#ff0000;stroke:#ff0000;" x="169.90397" xlink:href="#m6ba6550238" y="101.564414"/>
    </g>
   </g>
   <g id="line2d_46">
    <g clip-path="url(#p64e4805392)">
     <use style="fill:#ff0000;stroke:#ff0000;stroke-linejoin:miter;" x="169.90397" xlink:href="#mdc2167ddb6" y="142.330583"/>
    </g>
   </g>
   <g id="line2d_47">
    <g clip-path="url(#p64e4805392)">
     <use style="fill:#ff0000;stroke:#ff0000;" x="169.90397" xlink:href="#m6ba6550238" y="101.564414"/>
    </g>
   </g>
   <g id="line2d_48">
    <g clip-path="url(#p64e4805392)">
     <use style="fill:#ff0000;stroke:#ff0000;stroke-linejoin:miter;" x="187.572245" xlink:href="#ma8cb190a26" y="284.57204"/>
    </g>
   </g>
   <g id="line2d_49">
    <g clip-path="url(#p64e4805392)">
     <use style="fill:#ff0000;stroke:#ff0000;" x="187.572245" xlink:href="#m6ba6550238" y="307.584"/>
    </g>
   </g>
   <g id="line2d_50">
    <g clip-path="url(#p64e4805392)">
     <use style="fill:#ff0000;stroke:#ff0000;stroke-linejoin:miter;" x="187.572245" xlink:href="#mdc2167ddb6" y="307.584"/>
    </g>
   </g>
   <g id="line2d_51">
    <g clip-path="url(#p64e4805392)">
     <use style="fill:#ff0000;stroke:#ff0000;" x="187.572245" xlink:href="#m6ba6550238" y="307.584"/>
    </g>
   </g>
   <g id="line2d_52">
    <g clip-path="url(#p64e4805392)">
     <use style="fill:#ff0000;stroke:#ff0000;stroke-linejoin:miter;" x="220.70026" xlink:href="#ma8cb190a26" y="245.519983"/>
    </g>
   </g>
   <g id="line2d_53">
    <g clip-path="url(#p64e4805392)">
     <use style="fill:#ff0000;stroke:#ff0000;" x="220.70026" xlink:href="#m6ba6550238" y="294.879459"/>
    </g>
   </g>
   <g id="line2d_54">
    <g clip-path="url(#p64e4805392)">
     <use style="fill:#ff0000;stroke:#ff0000;stroke-linejoin:miter;" x="220.70026" xlink:href="#mdc2167ddb6" y="306.933177"/>
    </g>
   </g>
   <g id="line2d_55">
    <g clip-path="url(#p64e4805392)">
     <use style="fill:#ff0000;stroke:#ff0000;" x="220.70026" xlink:href="#m6ba6550238" y="294.879459"/>
    </g>
   </g>
   <g id="line2d_56">
    <g clip-path="url(#p64e4805392)">
     <use style="fill:#ff0000;stroke:#ff0000;stroke-linejoin:miter;" x="236.16" xlink:href="#ma8cb190a26" y="54.144"/>
    </g>
   </g>
   <g id="line2d_57">
    <g clip-path="url(#p64e4805392)">
     <use style="fill:#ff0000;stroke:#ff0000;" x="236.16" xlink:href="#m6ba6550238" y="66.197718"/>
    </g>
   </g>
   <g id="line2d_58">
    <g clip-path="url(#p64e4805392)">
     <use style="fill:#ff0000;stroke:#ff0000;stroke-linejoin:miter;" x="236.16" xlink:href="#mdc2167ddb6" y="115.557194"/>
    </g>
   </g>
   <g id="line2d_59">
    <g clip-path="url(#p64e4805392)">
     <use style="fill:#ff0000;stroke:#ff0000;" x="236.16" xlink:href="#m6ba6550238" y="66.197718"/>
    </g>
   </g>
   <g id="line2d_60">
    <g clip-path="url(#p64e4805392)">
     <use style="fill:#0000ff;stroke:#0000ff;stroke-linejoin:miter;" x="253.828275" xlink:href="#m593ec21f65" y="265.196321"/>
    </g>
   </g>
   <g id="line2d_61">
    <g clip-path="url(#p64e4805392)">
     <use style="fill:#0000ff;stroke:#0000ff;" x="253.828275" xlink:href="#md04d172f30" y="307.584"/>
    </g>
   </g>
   <g id="line2d_62">
    <g clip-path="url(#p64e4805392)">
     <use style="fill:#0000ff;stroke:#0000ff;stroke-linejoin:miter;" x="253.828275" xlink:href="#m800be4b6e5" y="307.584"/>
    </g>
   </g>
   <g id="line2d_63">
    <g clip-path="url(#p64e4805392)">
     <use style="fill:#0000ff;stroke:#0000ff;" x="253.828275" xlink:href="#md04d172f30" y="307.584"/>
    </g>
   </g>
   <g id="line2d_64">
    <g clip-path="url(#p64e4805392)">
     <use style="fill:#008000;stroke:#008000;stroke-linejoin:miter;" x="286.956289" xlink:href="#m2035f85001" y="146.236938"/>
    </g>
   </g>
   <g id="line2d_65">
    <g clip-path="url(#p64e4805392)">
     <use style="fill:#008000;stroke:#008000;" x="286.956289" xlink:href="#mf71a70a538" y="180.538589"/>
    </g>
   </g>
   <g id="line2d_66">
    <g clip-path="url(#p64e4805392)">
     <use style="fill:#008000;stroke:#008000;stroke-linejoin:miter;" x="286.956289" xlink:href="#m6f1c2deb48" y="214.840239"/>
    </g>
   </g>
   <g id="line2d_67">
    <g clip-path="url(#p64e4805392)">
     <use style="fill:#008000;stroke:#008000;" x="286.956289" xlink:href="#mf71a70a538" y="180.538589"/>
    </g>
   </g>
   <g id="line2d_68">
    <g clip-path="url(#p64e4805392)">
     <use style="fill:#008000;stroke:#008000;stroke-linejoin:miter;" x="302.41603" xlink:href="#m2035f85001" y="178.256266"/>
    </g>
   </g>
   <g id="line2d_69">
    <g clip-path="url(#p64e4805392)">
     <use style="fill:#008000;stroke:#008000;" x="302.41603" xlink:href="#mf71a70a538" y="212.299941"/>
    </g>
   </g>
   <g id="line2d_70">
    <g clip-path="url(#p64e4805392)">
     <use style="fill:#008000;stroke:#008000;stroke-linejoin:miter;" x="302.41603" xlink:href="#m6f1c2deb48" y="242.137566"/>
    </g>
   </g>
   <g id="line2d_71">
    <g clip-path="url(#p64e4805392)">
     <use style="fill:#008000;stroke:#008000;" x="302.41603" xlink:href="#mf71a70a538" y="212.299941"/>
    </g>
   </g>
   <g id="line2d_72">
    <g clip-path="url(#p64e4805392)">
     <use style="fill:#008000;stroke:#008000;stroke-linejoin:miter;" x="320.084304" xlink:href="#m2035f85001" y="246.782985"/>
    </g>
   </g>
   <g id="line2d_73">
    <g clip-path="url(#p64e4805392)">
     <use style="fill:#008000;stroke:#008000;" x="320.084304" xlink:href="#mf71a70a538" y="275.822647"/>
    </g>
   </g>
   <g id="line2d_74">
    <g clip-path="url(#p64e4805392)">
     <use style="fill:#008000;stroke:#008000;stroke-linejoin:miter;" x="320.084304" xlink:href="#m6f1c2deb48" y="292.340894"/>
    </g>
   </g>
   <g id="line2d_75">
    <g clip-path="url(#p64e4805392)">
     <use style="fill:#008000;stroke:#008000;" x="320.084304" xlink:href="#mf71a70a538" y="275.822647"/>
    </g>
   </g>
   <g id="line2d_76">
    <g clip-path="url(#p64e4805392)">
     <use style="fill:#0000ff;stroke:#0000ff;stroke-linejoin:miter;" x="353.212319" xlink:href="#m593ec21f65" y="205.112116"/>
    </g>
   </g>
   <g id="line2d_77">
    <g clip-path="url(#p64e4805392)">
     <use style="fill:#0000ff;stroke:#0000ff;" x="353.212319" xlink:href="#md04d172f30" y="234.28857"/>
    </g>
   </g>
   <g id="line2d_78">
    <g clip-path="url(#p64e4805392)">
     <use style="fill:#0000ff;stroke:#0000ff;stroke-linejoin:miter;" x="353.212319" xlink:href="#m800be4b6e5" y="266.797586"/>
    </g>
   </g>
   <g id="line2d_79">
    <g clip-path="url(#p64e4805392)">
     <use style="fill:#0000ff;stroke:#0000ff;" x="353.212319" xlink:href="#md04d172f30" y="234.28857"/>
    </g>
   </g>
   <g id="line2d_80">
    <g clip-path="url(#p64e4805392)">
     <use style="fill:#ff0000;stroke:#ff0000;stroke-linejoin:miter;" x="368.672059" xlink:href="#ma8cb190a26" y="111.72501"/>
    </g>
   </g>
   <g id="line2d_81">
    <g clip-path="url(#p64e4805392)">
     <use style="fill:#ff0000;stroke:#ff0000;" x="368.672059" xlink:href="#m6ba6550238" y="141.447693"/>
    </g>
   </g>
   <g id="line2d_82">
    <g clip-path="url(#p64e4805392)">
     <use style="fill:#ff0000;stroke:#ff0000;stroke-linejoin:miter;" x="368.672059" xlink:href="#mdc2167ddb6" y="178.074549"/>
    </g>
   </g>
   <g id="line2d_83">
    <g clip-path="url(#p64e4805392)">
     <use style="fill:#ff0000;stroke:#ff0000;" x="368.672059" xlink:href="#m6ba6550238" y="141.447693"/>
    </g>
   </g>
   <g id="line2d_84">
    <g clip-path="url(#p64e4805392)">
     <use style="fill:#0000ff;stroke:#0000ff;stroke-linejoin:miter;" x="386.340334" xlink:href="#m593ec21f65" y="266.797585"/>
    </g>
   </g>
   <g id="line2d_85">
    <g clip-path="url(#p64e4805392)">
     <use style="fill:#0000ff;stroke:#0000ff;" x="386.340334" xlink:href="#md04d172f30" y="292.924914"/>
    </g>
   </g>
   <g id="line2d_86">
    <g clip-path="url(#p64e4805392)">
     <use style="fill:#0000ff;stroke:#0000ff;stroke-linejoin:miter;" x="386.340334" xlink:href="#m800be4b6e5" y="303.541986"/>
    </g>
   </g>
   <g id="line2d_87">
    <g clip-path="url(#p64e4805392)">
     <use style="fill:#0000ff;stroke:#0000ff;" x="386.340334" xlink:href="#md04d172f30" y="292.924914"/>
    </g>
   </g>
   <g id="line2d_88">
    <path clip-path="url(#p64e4805392)" d="M 88.1882 179.433846 
" style="fill:none;stroke:#0000ff;stroke-linecap:square;stroke-width:1.5;"/>
   </g>
   <g id="line2d_89">
    <path clip-path="url(#p64e4805392)" d="M 103.647941 181.643331 
" style="fill:none;stroke:#008000;stroke-linecap:square;stroke-width:1.5;"/>
   </g>
   <g id="line2d_90">
    <path clip-path="url(#p64e4805392)" d="M 121.316215 307.584 
" style="fill:none;stroke:#ff0000;stroke-linecap:square;stroke-width:1.5;"/>
   </g>
   <g id="line2d_91">
    <path clip-path="url(#p64e4805392)" d="M 154.44423 259.512763 
" style="fill:none;stroke:#ff0000;stroke-linecap:square;stroke-width:1.5;"/>
   </g>
   <g id="line2d_92">
    <path clip-path="url(#p64e4805392)" d="M 169.90397 101.564414 
" style="fill:none;stroke:#ff0000;stroke-linecap:square;stroke-width:1.5;"/>
   </g>
   <g id="line2d_93">
    <path clip-path="url(#p64e4805392)" d="M 187.572245 307.584 
" style="fill:none;stroke:#ff0000;stroke-linecap:square;stroke-width:1.5;"/>
   </g>
   <g id="line2d_94">
    <path clip-path="url(#p64e4805392)" d="M 220.70026 294.879459 
" style="fill:none;stroke:#ff0000;stroke-linecap:square;stroke-width:1.5;"/>
   </g>
   <g id="line2d_95">
    <path clip-path="url(#p64e4805392)" d="M 236.16 66.197718 
" style="fill:none;stroke:#ff0000;stroke-linecap:square;stroke-width:1.5;"/>
   </g>
   <g id="line2d_96">
    <path clip-path="url(#p64e4805392)" d="M 253.828275 307.584 
" style="fill:none;stroke:#0000ff;stroke-linecap:square;stroke-width:1.5;"/>
   </g>
   <g id="line2d_97">
    <path clip-path="url(#p64e4805392)" d="M 286.956289 180.538589 
" style="fill:none;stroke:#008000;stroke-linecap:square;stroke-width:1.5;"/>
   </g>
   <g id="line2d_98">
    <path clip-path="url(#p64e4805392)" d="M 302.41603 212.299941 
" style="fill:none;stroke:#008000;stroke-linecap:square;stroke-width:1.5;"/>
   </g>
   <g id="line2d_99">
    <path clip-path="url(#p64e4805392)" d="M 320.084304 275.822647 
" style="fill:none;stroke:#008000;stroke-linecap:square;stroke-width:1.5;"/>
   </g>
   <g id="line2d_100">
    <path clip-path="url(#p64e4805392)" d="M 353.212319 234.28857 
" style="fill:none;stroke:#0000ff;stroke-linecap:square;stroke-width:1.5;"/>
   </g>
   <g id="line2d_101">
    <path clip-path="url(#p64e4805392)" d="M 368.672059 141.447693 
" style="fill:none;stroke:#ff0000;stroke-linecap:square;stroke-width:1.5;"/>
   </g>
   <g id="line2d_102">
    <path clip-path="url(#p64e4805392)" d="M 386.340334 292.924914 
" style="fill:none;stroke:#0000ff;stroke-linecap:square;stroke-width:1.5;"/>
   </g>
   <g id="patch_158">
    <path d="M 57.6 307.584 
L 57.6 41.472 
" style="fill:none;stroke:#000000;stroke-linecap:square;stroke-linejoin:miter;stroke-width:0.8;"/>
   </g>
   <g id="patch_159">
    <path d="M 414.72 307.584 
L 414.72 41.472 
" style="fill:none;stroke:#000000;stroke-linecap:square;stroke-linejoin:miter;stroke-width:0.8;"/>
   </g>
   <g id="patch_160">
    <path d="M 57.6 307.584 
L 414.72 307.584 
" style="fill:none;stroke:#000000;stroke-linecap:square;stroke-linejoin:miter;stroke-width:0.8;"/>
   </g>
   <g id="patch_161">
    <path d="M 57.6 41.472 
L 414.72 41.472 
" style="fill:none;stroke:#000000;stroke-linecap:square;stroke-linejoin:miter;stroke-width:0.8;"/>
   </g>
   <g id="text_18">
    <!-- Framework Users by Region and Time Zone -->
    <defs>
     <path d="M 32.171875 -5.078125 
Q 28.375 -14.84375 24.75 -17.8125 
Q 21.140625 -20.796875 15.09375 -20.796875 
L 7.90625 -20.796875 
L 7.90625 -13.28125 
L 13.1875 -13.28125 
Q 16.890625 -13.28125 18.9375 -11.515625 
Q 21 -9.765625 23.484375 -3.21875 
L 25.09375 0.875 
L 2.984375 54.6875 
L 12.5 54.6875 
L 29.59375 11.921875 
L 46.6875 54.6875 
L 56.203125 54.6875 
z
" id="DejaVuSans-121"/>
     <path d="M 44.390625 34.1875 
Q 47.5625 33.109375 50.5625 29.59375 
Q 53.5625 26.078125 56.59375 19.921875 
L 66.609375 0 
L 56 0 
L 46.6875 18.703125 
Q 43.0625 26.03125 39.671875 28.421875 
Q 36.28125 30.8125 30.421875 30.8125 
L 19.671875 30.8125 
L 19.671875 0 
L 9.8125 0 
L 9.8125 72.90625 
L 32.078125 72.90625 
Q 44.578125 72.90625 50.734375 67.671875 
Q 56.890625 62.453125 56.890625 51.90625 
Q 56.890625 45.015625 53.6875 40.46875 
Q 50.484375 35.9375 44.390625 34.1875 
z
M 19.671875 64.796875 
L 19.671875 38.921875 
L 32.078125 38.921875 
Q 39.203125 38.921875 42.84375 42.21875 
Q 46.484375 45.515625 46.484375 51.90625 
Q 46.484375 58.296875 42.84375 61.546875 
Q 39.203125 64.796875 32.078125 64.796875 
z
" id="DejaVuSans-82"/>
     <path d="M 45.40625 46.390625 
L 45.40625 75.984375 
L 54.390625 75.984375 
L 54.390625 0 
L 45.40625 0 
L 45.40625 8.203125 
Q 42.578125 3.328125 38.25 0.953125 
Q 33.9375 -1.421875 27.875 -1.421875 
Q 17.96875 -1.421875 11.734375 6.484375 
Q 5.515625 14.40625 5.515625 27.296875 
Q 5.515625 40.1875 11.734375 48.09375 
Q 17.96875 56 27.875 56 
Q 33.9375 56 38.25 53.625 
Q 42.578125 51.265625 45.40625 46.390625 
z
M 14.796875 27.296875 
Q 14.796875 17.390625 18.875 11.75 
Q 22.953125 6.109375 30.078125 6.109375 
Q 37.203125 6.109375 41.296875 11.75 
Q 45.40625 17.390625 45.40625 27.296875 
Q 45.40625 37.203125 41.296875 42.84375 
Q 37.203125 48.484375 30.078125 48.484375 
Q 22.953125 48.484375 18.875 42.84375 
Q 14.796875 37.203125 14.796875 27.296875 
z
" id="DejaVuSans-100"/>
     <path d="M -0.296875 72.90625 
L 61.375 72.90625 
L 61.375 64.59375 
L 35.5 64.59375 
L 35.5 0 
L 25.59375 0 
L 25.59375 64.59375 
L -0.296875 64.59375 
z
" id="DejaVuSans-84"/>
     <path d="M 5.609375 72.90625 
L 62.890625 72.90625 
L 62.890625 65.375 
L 16.796875 8.296875 
L 64.015625 8.296875 
L 64.015625 0 
L 4.5 0 
L 4.5 7.515625 
L 50.59375 64.59375 
L 5.609375 64.59375 
z
" id="DejaVuSans-90"/>
    </defs>
    <g transform="translate(105.557813 35.472)scale(0.12 -0.12)">
     <use xlink:href="#DejaVuSans-70"/>
     <use x="50.269531" xlink:href="#DejaVuSans-114"/>
     <use x="91.382812" xlink:href="#DejaVuSans-97"/>
     <use x="152.662109" xlink:href="#DejaVuSans-109"/>
     <use x="250.074219" xlink:href="#DejaVuSans-101"/>
     <use x="311.597656" xlink:href="#DejaVuSans-119"/>
     <use x="393.384766" xlink:href="#DejaVuSans-111"/>
     <use x="454.566406" xlink:href="#DejaVuSans-114"/>
     <use x="495.679688" xlink:href="#DejaVuSans-107"/>
     <use x="553.589844" xlink:href="#DejaVuSans-32"/>
     <use x="585.376953" xlink:href="#DejaVuSans-85"/>
     <use x="658.570312" xlink:href="#DejaVuSans-115"/>
     <use x="710.669922" xlink:href="#DejaVuSans-101"/>
     <use x="772.193359" xlink:href="#DejaVuSans-114"/>
     <use x="813.306641" xlink:href="#DejaVuSans-115"/>
     <use x="865.40625" xlink:href="#DejaVuSans-32"/>
     <use x="897.193359" xlink:href="#DejaVuSans-98"/>
     <use x="960.669922" xlink:href="#DejaVuSans-121"/>
     <use x="1019.849609" xlink:href="#DejaVuSans-32"/>
     <use x="1051.636719" xlink:href="#DejaVuSans-82"/>
     <use x="1116.619141" xlink:href="#DejaVuSans-101"/>
     <use x="1178.142578" xlink:href="#DejaVuSans-103"/>
     <use x="1241.619141" xlink:href="#DejaVuSans-105"/>
     <use x="1269.402344" xlink:href="#DejaVuSans-111"/>
     <use x="1330.583984" xlink:href="#DejaVuSans-110"/>
     <use x="1393.962891" xlink:href="#DejaVuSans-32"/>
     <use x="1425.75" xlink:href="#DejaVuSans-97"/>
     <use x="1487.029297" xlink:href="#DejaVuSans-110"/>
     <use x="1550.408203" xlink:href="#DejaVuSans-100"/>
     <use x="1613.884766" xlink:href="#DejaVuSans-32"/>
     <use x="1645.671875" xlink:href="#DejaVuSans-84"/>
     <use x="1703.630859" xlink:href="#DejaVuSans-105"/>
     <use x="1731.414062" xlink:href="#DejaVuSans-109"/>
     <use x="1828.826172" xlink:href="#DejaVuSans-101"/>
     <use x="1890.349609" xlink:href="#DejaVuSans-32"/>
     <use x="1922.136719" xlink:href="#DejaVuSans-90"/>
     <use x="1990.642578" xlink:href="#DejaVuSans-111"/>
     <use x="2051.824219" xlink:href="#DejaVuSans-110"/>
     <use x="2115.203125" xlink:href="#DejaVuSans-101"/>
    </g>
   </g>
   <g id="legend_1">
    <g id="patch_162">
     <path d="M 249.090313 93.506375 
L 407.72 93.506375 
Q 409.72 93.506375 409.72 91.506375 
L 409.72 48.472 
Q 409.72 46.472 407.72 46.472 
L 249.090313 46.472 
Q 247.090313 46.472 247.090313 48.472 
L 247.090313 91.506375 
Q 247.090313 93.506375 249.090313 93.506375 
z
" style="fill:#ffffff;opacity:0.8;stroke:#cccccc;stroke-linejoin:miter;"/>
    </g>
    <g id="patch_163">
     <path d="M 251.090313 58.070438 
L 271.090312 58.070438 
L 271.090312 51.070438 
L 251.090313 51.070438 
z
" style="fill:#1f77b4;"/>
    </g>
    <g id="text_19">
     <!-- North and South America -->
     <defs>
      <path d="M 9.8125 72.90625 
L 23.09375 72.90625 
L 55.421875 11.921875 
L 55.421875 72.90625 
L 64.984375 72.90625 
L 64.984375 0 
L 51.703125 0 
L 19.390625 60.984375 
L 19.390625 0 
L 9.8125 0 
z
" id="DejaVuSans-78"/>
      <path d="M 54.890625 33.015625 
L 54.890625 0 
L 45.90625 0 
L 45.90625 32.71875 
Q 45.90625 40.484375 42.875 44.328125 
Q 39.84375 48.1875 33.796875 48.1875 
Q 26.515625 48.1875 22.3125 43.546875 
Q 18.109375 38.921875 18.109375 30.90625 
L 18.109375 0 
L 9.078125 0 
L 9.078125 75.984375 
L 18.109375 75.984375 
L 18.109375 46.1875 
Q 21.34375 51.125 25.703125 53.5625 
Q 30.078125 56 35.796875 56 
Q 45.21875 56 50.046875 50.171875 
Q 54.890625 44.34375 54.890625 33.015625 
z
" id="DejaVuSans-104"/>
      <path d="M 8.5 21.578125 
L 8.5 54.6875 
L 17.484375 54.6875 
L 17.484375 21.921875 
Q 17.484375 14.15625 20.5 10.265625 
Q 23.53125 6.390625 29.59375 6.390625 
Q 36.859375 6.390625 41.078125 11.03125 
Q 45.3125 15.671875 45.3125 23.6875 
L 45.3125 54.6875 
L 54.296875 54.6875 
L 54.296875 0 
L 45.3125 0 
L 45.3125 8.40625 
Q 42.046875 3.421875 37.71875 1 
Q 33.40625 -1.421875 27.6875 -1.421875 
Q 18.265625 -1.421875 13.375 4.4375 
Q 8.5 10.296875 8.5 21.578125 
z
M 31.109375 56 
z
" id="DejaVuSans-117"/>
      <path d="M 34.1875 63.1875 
L 20.796875 26.90625 
L 47.609375 26.90625 
z
M 28.609375 72.90625 
L 39.796875 72.90625 
L 67.578125 0 
L 57.328125 0 
L 50.6875 18.703125 
L 17.828125 18.703125 
L 11.1875 0 
L 0.78125 0 
z
" id="DejaVuSans-65"/>
     </defs>
     <g transform="translate(279.090312 58.070438)scale(0.1 -0.1)">
      <use xlink:href="#DejaVuSans-78"/>
      <use x="74.804688" xlink:href="#DejaVuSans-111"/>
      <use x="135.986328" xlink:href="#DejaVuSans-114"/>
      <use x="177.099609" xlink:href="#DejaVuSans-116"/>
      <use x="216.308594" xlink:href="#DejaVuSans-104"/>
      <use x="279.6875" xlink:href="#DejaVuSans-32"/>
      <use x="311.474609" xlink:href="#DejaVuSans-97"/>
      <use x="372.753906" xlink:href="#DejaVuSans-110"/>
      <use x="436.132812" xlink:href="#DejaVuSans-100"/>
      <use x="499.609375" xlink:href="#DejaVuSans-32"/>
      <use x="531.396484" xlink:href="#DejaVuSans-83"/>
      <use x="594.873047" xlink:href="#DejaVuSans-111"/>
      <use x="656.054688" xlink:href="#DejaVuSans-117"/>
      <use x="719.433594" xlink:href="#DejaVuSans-116"/>
      <use x="758.642578" xlink:href="#DejaVuSans-104"/>
      <use x="822.021484" xlink:href="#DejaVuSans-32"/>
      <use x="853.808594" xlink:href="#DejaVuSans-65"/>
      <use x="922.216797" xlink:href="#DejaVuSans-109"/>
      <use x="1019.628906" xlink:href="#DejaVuSans-101"/>
      <use x="1081.152344" xlink:href="#DejaVuSans-114"/>
      <use x="1122.265625" xlink:href="#DejaVuSans-105"/>
      <use x="1150.048828" xlink:href="#DejaVuSans-99"/>
      <use x="1205.029297" xlink:href="#DejaVuSans-97"/>
     </g>
    </g>
    <g id="patch_164">
     <path d="M 251.090313 72.748563 
L 271.090312 72.748563 
L 271.090312 65.748563 
L 251.090313 65.748563 
z
" style="fill:#ff7f0e;"/>
    </g>
    <g id="text_20">
     <!-- Europe and Africa -->
     <defs>
      <path d="M 9.8125 72.90625 
L 55.90625 72.90625 
L 55.90625 64.59375 
L 19.671875 64.59375 
L 19.671875 43.015625 
L 54.390625 43.015625 
L 54.390625 34.71875 
L 19.671875 34.71875 
L 19.671875 8.296875 
L 56.78125 8.296875 
L 56.78125 0 
L 9.8125 0 
z
" id="DejaVuSans-69"/>
      <path d="M 18.109375 8.203125 
L 18.109375 -20.796875 
L 9.078125 -20.796875 
L 9.078125 54.6875 
L 18.109375 54.6875 
L 18.109375 46.390625 
Q 20.953125 51.265625 25.265625 53.625 
Q 29.59375 56 35.59375 56 
Q 45.5625 56 51.78125 48.09375 
Q 58.015625 40.1875 58.015625 27.296875 
Q 58.015625 14.40625 51.78125 6.484375 
Q 45.5625 -1.421875 35.59375 -1.421875 
Q 29.59375 -1.421875 25.265625 0.953125 
Q 20.953125 3.328125 18.109375 8.203125 
z
M 48.6875 27.296875 
Q 48.6875 37.203125 44.609375 42.84375 
Q 40.53125 48.484375 33.40625 48.484375 
Q 26.265625 48.484375 22.1875 42.84375 
Q 18.109375 37.203125 18.109375 27.296875 
Q 18.109375 17.390625 22.1875 11.75 
Q 26.265625 6.109375 33.40625 6.109375 
Q 40.53125 6.109375 44.609375 11.75 
Q 48.6875 17.390625 48.6875 27.296875 
z
" id="DejaVuSans-112"/>
     </defs>
     <g transform="translate(279.090312 72.748563)scale(0.1 -0.1)">
      <use xlink:href="#DejaVuSans-69"/>
      <use x="63.183594" xlink:href="#DejaVuSans-117"/>
      <use x="126.5625" xlink:href="#DejaVuSans-114"/>
      <use x="165.425781" xlink:href="#DejaVuSans-111"/>
      <use x="226.607422" xlink:href="#DejaVuSans-112"/>
      <use x="290.083984" xlink:href="#DejaVuSans-101"/>
      <use x="351.607422" xlink:href="#DejaVuSans-32"/>
      <use x="383.394531" xlink:href="#DejaVuSans-97"/>
      <use x="444.673828" xlink:href="#DejaVuSans-110"/>
      <use x="508.052734" xlink:href="#DejaVuSans-100"/>
      <use x="571.529297" xlink:href="#DejaVuSans-32"/>
      <use x="603.316406" xlink:href="#DejaVuSans-65"/>
      <use x="668.099609" xlink:href="#DejaVuSans-102"/>
      <use x="703.304688" xlink:href="#DejaVuSans-114"/>
      <use x="744.417969" xlink:href="#DejaVuSans-105"/>
      <use x="772.201172" xlink:href="#DejaVuSans-99"/>
      <use x="827.181641" xlink:href="#DejaVuSans-97"/>
     </g>
    </g>
    <g id="patch_165">
     <path d="M 251.090313 87.426688 
L 271.090312 87.426688 
L 271.090312 80.426688 
L 251.090313 80.426688 
z
" style="fill:#2ca02c;"/>
    </g>
    <g id="text_21">
     <!-- Asia and Australia -->
     <defs>
      <path d="M 9.421875 75.984375 
L 18.40625 75.984375 
L 18.40625 0 
L 9.421875 0 
z
" id="DejaVuSans-108"/>
     </defs>
     <g transform="translate(279.090312 87.426688)scale(0.1 -0.1)">
      <use xlink:href="#DejaVuSans-65"/>
      <use x="68.408203" xlink:href="#DejaVuSans-115"/>
      <use x="120.507812" xlink:href="#DejaVuSans-105"/>
      <use x="148.291016" xlink:href="#DejaVuSans-97"/>
      <use x="209.570312" xlink:href="#DejaVuSans-32"/>
      <use x="241.357422" xlink:href="#DejaVuSans-97"/>
      <use x="302.636719" xlink:href="#DejaVuSans-110"/>
      <use x="366.015625" xlink:href="#DejaVuSans-100"/>
      <use x="429.492188" xlink:href="#DejaVuSans-32"/>
      <use x="461.279297" xlink:href="#DejaVuSans-65"/>
      <use x="529.6875" xlink:href="#DejaVuSans-117"/>
      <use x="593.066406" xlink:href="#DejaVuSans-115"/>
      <use x="645.166016" xlink:href="#DejaVuSans-116"/>
      <use x="684.375" xlink:href="#DejaVuSans-114"/>
      <use x="725.488281" xlink:href="#DejaVuSans-97"/>
      <use x="786.767578" xlink:href="#DejaVuSans-108"/>
      <use x="814.550781" xlink:href="#DejaVuSans-105"/>
      <use x="842.333984" xlink:href="#DejaVuSans-97"/>
     </g>
    </g>
   </g>
  </g>
 </g>
 <defs>
  <clipPath id="p64e4805392">
   <rect height="266.112" width="357.12" x="57.6" y="41.472"/>
  </clipPath>
 </defs>
</svg>
